<?xml version="1.0" encoding="utf-8"?>
<!-- Generator: Adobe Illustrator 23.0.3, SVG Export Plug-In . SVG Version: 6.00 Build 0)  -->
<svg version="1.1" id="Capa_1" xmlns="http://www.w3.org/2000/svg" xmlns:xlink="http://www.w3.org/1999/xlink" x="0px" y="0px"
	 viewBox="0 0 55.5 215.5" style="enable-background:new 0 0 55.5 215.5;" xml:space="preserve">
<style type="text/css">
	.st0{fill:#2465EE;}
	.st1{display:none;opacity:0.62;}
	.st2{fill:#FFFFFF;}
	.st3{fill:#00EEAB;}
	.st4{opacity:0.72;fill:none;stroke:#999999;stroke-width:23.5;stroke-miterlimit:10;}
	.st5{opacity:0.72;fill:none;stroke:#999999;stroke-width:23.5;stroke-linecap:square;stroke-miterlimit:10;}
	.st6{fill:#CCCCCC;}
	.st7{opacity:0.72;fill:none;stroke:#999999;stroke-width:16.0776;stroke-linecap:square;stroke-miterlimit:10;}
	.st8{fill:#45B6F4;}
	.st9{fill:#FFEF00;}
	.st10{opacity:0.72;fill:none;stroke:#999999;stroke-width:11.2807;stroke-linecap:square;stroke-miterlimit:10;}
	.st11{opacity:0.72;fill:#FF99E9;}
	.st12{fill:#FF99E9;}
	.st13{fill:#FF473A;}
	.st14{opacity:0.72;fill:#FFEF00;}
	.st15{clip-path:url(#SVGID_2_);fill:#2465EE;}
	.st16{clip-path:url(#SVGID_2_);}
	.st17{fill:none;stroke:#FFEF00;stroke-width:8;stroke-miterlimit:10;}
	.st18{clip-path:url(#SVGID_2_);fill:#45B6F4;}
	.st19{clip-path:url(#SVGID_2_);fill:#FFEF00;}
	.st20{fill:none;stroke:#00EEAB;stroke-width:12;stroke-miterlimit:10;}
	.st21{clip-path:url(#SVGID_4_);fill:none;stroke:#FFEF00;stroke-width:12;stroke-miterlimit:10;}
	.st22{clip-path:url(#SVGID_2_);fill:#FF99E9;}
	.st23{clip-path:url(#SVGID_2_);fill:#00EEAB;}
	.st24{clip-path:url(#SVGID_6_);fill:none;stroke:#FFEF00;stroke-width:12;stroke-miterlimit:10;}
</style>
<path d="M27.8,215.5V192c2.3,0,4.2-1.9,4.2-4.2s-1.9-4.2-4.2-4.2C12.4,183.5,0,171.1,0,155.8S12.4,128,27.8,128
	c2.3,0,4.2-1.9,4.2-4.2s-1.9-4.2-4.2-4.2C12.4,119.5,0,107.1,0,91.8S12.4,64,27.8,64c2.3,0,4.2-1.9,4.2-4.2s-1.9-4.2-4.2-4.2
	C12.4,55.5,0,43.1,0,27.8S12.4,0,27.8,0v23.5c-2.3,0-4.2,1.9-4.2,4.2s1.9,4.2,4.2,4.2c15.3,0,27.8,12.4,27.8,27.8
	S43.1,87.5,27.8,87.5c-2.3,0-4.2,1.9-4.2,4.2s1.9,4.2,4.2,4.2c15.3,0,27.8,12.4,27.8,27.8s-12.4,27.8-27.8,27.8
	c-2.3,0-4.2,1.9-4.2,4.2s1.9,4.2,4.2,4.2c15.3,0,27.8,12.4,27.8,27.8S43.1,215.5,27.8,215.5z"/>
</svg>
