<?xml version="1.0" encoding="utf-8"?>
<!-- Generator: Adobe Illustrator 23.0.3, SVG Export Plug-In . SVG Version: 6.00 Build 0)  -->
<svg version="1.1" id="Capa_1" xmlns="http://www.w3.org/2000/svg" xmlns:xlink="http://www.w3.org/1999/xlink" x="0px" y="0px"
	 viewBox="0 0 128.9 27.3" style="enable-background:new 0 0 128.9 27.3;" xml:space="preserve">
<style type="text/css">
	.st0{fill:#FFFFFF;}
</style>
<g>
	<path class="st0" d="M51.1,2.3c0.2-0.2,0.2-0.5,0-0.7l0-0.1c-0.4-0.5-1.1-0.7-1.7-0.7L38.7,1.4C38.3,1.4,38,1.7,38,2
		c0,0.1-0.1,0.2-0.2,0.3c-0.5,0.3-2.2,1.5-2.3,4.6c-0.1,3,1.2,5.7,1.7,6.6c0.1,0.2,0.2,0.5,0.1,0.7l-0.1,0.6c-0.1,0.4,0,0.8,0.2,1.1
		l5,10.1c0.1,0.1,0.2,0.2,0.4,0.2h2.8c0.2,0,0.3-0.1,0.4-0.2l5.3-10.1c0.2-0.4,0.2-0.9,0.1-1.3L48.2,7c-0.2-0.6-0.1-1.3,0.3-1.8
		L51.1,2.3z M40.4,6.9L38,11.6c0,0.1-0.2,0.1-0.2,0c-0.5-1-2.3-5.8,1.4-7.8c0.1-0.1,0.7,0.9,1.1,1.6C40.6,5.8,40.6,6.4,40.4,6.9z"/>
	<g>
		<g>
			<path class="st0" d="M56.7,3.9h-1.3v1.2h1.4v0.4H55V2.2h1.8v0.4h-1.3v1h1.3V3.9z"/>
			<path class="st0" d="M57.3,5c0.1,0.1,0.4,0.2,0.6,0.2c0.3,0,0.5-0.2,0.5-0.4c0-0.2-0.1-0.3-0.4-0.4c-0.4-0.2-0.6-0.4-0.6-0.7
				c0-0.4,0.3-0.7,0.8-0.7c0.2,0,0.4,0.1,0.6,0.1l-0.1,0.3c-0.1-0.1-0.3-0.1-0.5-0.1c-0.3,0-0.4,0.1-0.4,0.3c0,0.2,0.1,0.3,0.4,0.4
				c0.4,0.2,0.6,0.4,0.6,0.7c0,0.4-0.3,0.7-0.9,0.7c-0.3,0-0.5-0.1-0.7-0.2L57.3,5z"/>
			<path class="st0" d="M61,5.4c-0.1,0.1-0.4,0.1-0.7,0.1c-0.7,0-1.2-0.5-1.2-1.2c0-0.7,0.5-1.3,1.3-1.3c0.3,0,0.5,0.1,0.6,0.1
				l-0.1,0.3c-0.1-0.1-0.3-0.1-0.5-0.1c-0.5,0-0.8,0.4-0.8,0.9c0,0.5,0.4,0.9,0.8,0.9c0.2,0,0.4-0.1,0.5-0.1L61,5.4z"/>
			<path class="st0" d="M63.5,4.8c0,0.2,0,0.5,0,0.6h-0.4l0-0.4h0c-0.1,0.2-0.4,0.4-0.8,0.4c-0.4,0-0.8-0.2-0.8-1V3.1h0.4v1.3
				c0,0.4,0.1,0.8,0.5,0.8c0.3,0,0.5-0.2,0.6-0.4c0-0.1,0-0.1,0-0.2V3.1h0.4V4.8z"/>
			<path class="st0" d="M64.4,4.4c0,0.6,0.4,0.8,0.8,0.8c0.3,0,0.5-0.1,0.7-0.1l0.1,0.3c-0.1,0.1-0.4,0.2-0.8,0.2
				c-0.7,0-1.2-0.5-1.2-1.2c0-0.7,0.4-1.3,1.1-1.3c0.8,0,1,0.7,1,1.1c0,0.1,0,0.2,0,0.2H64.4z M65.7,4.1c0-0.3-0.1-0.7-0.6-0.7
				c-0.4,0-0.6,0.4-0.7,0.7H65.7z"/>
			<path class="st0" d="M66.6,2H67v3.5h-0.4V2z"/>
			<path class="st0" d="M69.1,5.5l0-0.3h0c-0.1,0.2-0.4,0.4-0.7,0.4c-0.5,0-0.7-0.3-0.7-0.7C67.6,4.3,68.1,4,69,4V3.9
				c0-0.2-0.1-0.5-0.5-0.5c-0.2,0-0.4,0.1-0.6,0.2l-0.1-0.3c0.2-0.1,0.5-0.2,0.8-0.2c0.7,0,0.9,0.5,0.9,1v0.9c0,0.2,0,0.4,0,0.6
				H69.1z M69,4.3c-0.5,0-1,0.1-1,0.5c0,0.3,0.2,0.4,0.4,0.4c0.3,0,0.5-0.2,0.6-0.4c0,0,0-0.1,0-0.1V4.3z"/>
			<path class="st0" d="M73.2,2v2.8c0,0.2,0,0.4,0,0.6h-0.4l0-0.4h0c-0.1,0.3-0.4,0.5-0.8,0.5c-0.6,0-1-0.5-1-1.2
				c0-0.8,0.5-1.3,1.1-1.3c0.4,0,0.6,0.2,0.7,0.4h0V2H73.2z M72.7,4.1c0-0.1,0-0.1,0-0.2c-0.1-0.3-0.3-0.5-0.6-0.5
				c-0.4,0-0.7,0.4-0.7,0.9c0,0.5,0.2,0.9,0.7,0.9c0.3,0,0.5-0.2,0.6-0.5c0-0.1,0-0.1,0-0.2V4.1z"/>
			<path class="st0" d="M74.1,4.4c0,0.6,0.4,0.8,0.8,0.8c0.3,0,0.5-0.1,0.7-0.1l0.1,0.3c-0.1,0.1-0.4,0.2-0.8,0.2
				c-0.7,0-1.2-0.5-1.2-1.2c0-0.7,0.4-1.3,1.1-1.3c0.8,0,1,0.7,1,1.1c0,0.1,0,0.2,0,0.2H74.1z M75.4,4.1c0-0.3-0.1-0.7-0.6-0.7
				c-0.4,0-0.6,0.4-0.7,0.7H75.4z"/>
			<path class="st0" d="M77.9,4.5l-0.3,1h-0.4l1.1-3.3h0.5l1.1,3.3h-0.5l-0.4-1H77.9z M79,4.1l-0.3-0.9c-0.1-0.2-0.1-0.4-0.2-0.6h0
				c0,0.2-0.1,0.4-0.2,0.6l-0.3,1H79z"/>
			<path class="st0" d="M80.3,3.9c0-0.3,0-0.5,0-0.7h0.4l0,0.5h0c0.1-0.3,0.4-0.5,0.7-0.5c0,0,0.1,0,0.1,0v0.4c0,0-0.1,0-0.1,0
				c-0.3,0-0.5,0.2-0.6,0.5c0,0.1,0,0.1,0,0.2v1.3h-0.4V3.9z"/>
			<path class="st0" d="M82.6,2.5v0.7h0.6v0.3h-0.6v1.3c0,0.3,0.1,0.5,0.3,0.5c0.1,0,0.2,0,0.2,0l0,0.3c-0.1,0-0.2,0.1-0.4,0.1
				c-0.2,0-0.4-0.1-0.5-0.2c-0.1-0.1-0.2-0.3-0.2-0.6V3.5h-0.4V3.1h0.4V2.6L82.6,2.5z"/>
			<path class="st0" d="M83.9,4.4c0,0.6,0.4,0.8,0.8,0.8c0.3,0,0.5-0.1,0.7-0.1l0.1,0.3c-0.1,0.1-0.4,0.2-0.8,0.2
				c-0.7,0-1.2-0.5-1.2-1.2c0-0.7,0.4-1.3,1.1-1.3c0.8,0,1,0.7,1,1.1c0,0.1,0,0.2,0,0.2H83.9z M85.1,4.1c0-0.3-0.1-0.7-0.6-0.7
				c-0.4,0-0.6,0.4-0.7,0.7H85.1z"/>
			<path class="st0" d="M55,8.3h1.8v0.4h-1.3v1.1h1.2v0.4h-1.2v1.5H55V8.3z"/>
			<path class="st0" d="M57.2,10c0-0.3,0-0.5,0-0.7h0.4l0,0.5h0c0.1-0.3,0.4-0.5,0.7-0.5c0,0,0.1,0,0.1,0v0.4c0,0-0.1,0-0.1,0
				c-0.3,0-0.5,0.2-0.6,0.5c0,0.1,0,0.1,0,0.2v1.3h-0.4V10z"/>
			<path class="st0" d="M60.1,11.6l0-0.3h0c-0.1,0.2-0.4,0.4-0.7,0.4c-0.5,0-0.7-0.3-0.7-0.7c0-0.6,0.5-0.9,1.4-0.9V10
				c0-0.2-0.1-0.5-0.5-0.5c-0.2,0-0.4,0.1-0.6,0.2l-0.1-0.3c0.2-0.1,0.5-0.2,0.8-0.2c0.7,0,0.9,0.5,0.9,1V11c0,0.2,0,0.4,0,0.6H60.1
				z M60,10.4c-0.5,0-1,0.1-1,0.5c0,0.3,0.2,0.4,0.4,0.4c0.3,0,0.5-0.2,0.6-0.4c0,0,0-0.1,0-0.1V10.4z"/>
			<path class="st0" d="M61.1,9.9c0-0.2,0-0.4,0-0.6h0.4l0,0.4h0c0.1-0.2,0.4-0.4,0.8-0.4c0.3,0,0.8,0.2,0.8,1v1.4h-0.4v-1.4
				c0-0.4-0.1-0.7-0.5-0.7c-0.3,0-0.5,0.2-0.6,0.4c0,0.1,0,0.1,0,0.2v1.4h-0.4V9.9z"/>
			<path class="st0" d="M65.5,11.5c-0.1,0.1-0.4,0.1-0.7,0.1c-0.7,0-1.2-0.5-1.2-1.2c0-0.7,0.5-1.3,1.3-1.3c0.3,0,0.5,0.1,0.6,0.1
				l-0.1,0.3c-0.1-0.1-0.3-0.1-0.5-0.1c-0.5,0-0.8,0.4-0.8,0.9c0,0.5,0.4,0.9,0.8,0.9c0.2,0,0.4-0.1,0.5-0.1L65.5,11.5z"/>
			<path class="st0" d="M66.5,8.6c0,0.1-0.1,0.3-0.3,0.3c-0.2,0-0.3-0.1-0.3-0.3c0-0.1,0.1-0.3,0.3-0.3C66.4,8.3,66.5,8.4,66.5,8.6z
				 M66,11.6V9.2h0.4v2.4H66z"/>
			<path class="st0" d="M67.1,11.1c0.1,0.1,0.4,0.2,0.6,0.2c0.3,0,0.5-0.2,0.5-0.4c0-0.2-0.1-0.3-0.4-0.4c-0.4-0.2-0.6-0.4-0.6-0.7
				c0-0.4,0.3-0.7,0.8-0.7c0.2,0,0.4,0.1,0.6,0.1l-0.1,0.3c-0.1-0.1-0.3-0.1-0.5-0.1c-0.3,0-0.4,0.1-0.4,0.3c0,0.2,0.1,0.3,0.4,0.4
				c0.4,0.2,0.6,0.4,0.6,0.7c0,0.4-0.3,0.7-0.9,0.7c-0.3,0-0.5-0.1-0.7-0.2L67.1,11.1z"/>
			<path class="st0" d="M70.8,11.5c-0.1,0.1-0.4,0.1-0.7,0.1c-0.7,0-1.2-0.5-1.2-1.2c0-0.7,0.5-1.3,1.3-1.3c0.3,0,0.5,0.1,0.6,0.1
				l-0.1,0.3c-0.1-0.1-0.3-0.1-0.5-0.1c-0.5,0-0.8,0.4-0.8,0.9c0,0.5,0.4,0.9,0.8,0.9c0.2,0,0.4-0.1,0.5-0.1L70.8,11.5z"/>
			<path class="st0" d="M73.4,10.4c0,0.9-0.6,1.3-1.2,1.3c-0.6,0-1.1-0.5-1.1-1.2c0-0.8,0.5-1.2,1.2-1.2
				C72.9,9.2,73.4,9.7,73.4,10.4z M71.5,10.4c0,0.5,0.3,0.9,0.7,0.9c0.4,0,0.7-0.4,0.7-0.9c0-0.4-0.2-0.9-0.7-0.9
				C71.7,9.5,71.5,10,71.5,10.4z"/>
			<path class="st0" d="M75.5,10.5l-0.3,1h-0.4l1.1-3.3h0.5l1.1,3.3H77l-0.4-1H75.5z M76.6,10.2l-0.3-0.9c-0.1-0.2-0.1-0.4-0.2-0.6
				h0c0,0.2-0.1,0.4-0.2,0.6l-0.3,1H76.6z"/>
			<path class="st0" d="M77.9,8.1h0.4v3.5h-0.4V8.1z"/>
			<path class="st0" d="M80.7,11.5c-0.1,0.1-0.4,0.1-0.7,0.1c-0.7,0-1.2-0.5-1.2-1.2c0-0.7,0.5-1.3,1.3-1.3c0.3,0,0.5,0.1,0.6,0.1
				l-0.1,0.3c-0.1-0.1-0.3-0.1-0.5-0.1c-0.5,0-0.8,0.4-0.8,0.9c0,0.5,0.4,0.9,0.8,0.9c0.2,0,0.4-0.1,0.5-0.1L80.7,11.5z"/>
			<path class="st0" d="M82.5,11.6l0-0.3h0c-0.1,0.2-0.4,0.4-0.7,0.4c-0.5,0-0.7-0.3-0.7-0.7c0-0.6,0.5-0.9,1.4-0.9V10
				c0-0.2-0.1-0.5-0.5-0.5c-0.2,0-0.4,0.1-0.6,0.2l-0.1-0.3c0.2-0.1,0.5-0.2,0.8-0.2c0.7,0,0.9,0.5,0.9,1V11c0,0.2,0,0.4,0,0.6H82.5
				z M82.5,10.4c-0.5,0-1,0.1-1,0.5c0,0.3,0.2,0.4,0.4,0.4c0.3,0,0.5-0.2,0.6-0.4c0,0,0-0.1,0-0.1V10.4z M82.7,8.2l-0.6,0.7h-0.3
				l0.4-0.7H82.7z"/>
			<path class="st0" d="M83.6,9.9c0-0.2,0-0.4,0-0.6h0.4l0,0.4h0c0.1-0.2,0.4-0.4,0.8-0.4c0.3,0,0.8,0.2,0.8,1v1.4h-0.4v-1.4
				c0-0.4-0.1-0.7-0.5-0.7c-0.3,0-0.5,0.2-0.6,0.4c0,0.1,0,0.1,0,0.2v1.4h-0.4V9.9z"/>
			<path class="st0" d="M86.8,8.5v0.7h0.6v0.3h-0.6v1.3c0,0.3,0.1,0.5,0.3,0.5c0.1,0,0.2,0,0.2,0l0,0.3c-0.1,0-0.2,0.1-0.4,0.1
				c-0.2,0-0.4-0.1-0.5-0.2c-0.1-0.1-0.2-0.3-0.2-0.6V9.5H86V9.2h0.4V8.7L86.8,8.5z"/>
			<path class="st0" d="M89.2,11.6l0-0.3h0c-0.1,0.2-0.4,0.4-0.7,0.4c-0.5,0-0.7-0.3-0.7-0.7c0-0.6,0.5-0.9,1.4-0.9V10
				c0-0.2-0.1-0.5-0.5-0.5c-0.2,0-0.4,0.1-0.6,0.2l-0.1-0.3c0.2-0.1,0.5-0.2,0.8-0.2c0.7,0,0.9,0.5,0.9,1V11c0,0.2,0,0.4,0,0.6H89.2
				z M89.1,10.4c-0.5,0-1,0.1-1,0.5c0,0.3,0.2,0.4,0.4,0.4c0.3,0,0.5-0.2,0.6-0.4c0,0,0-0.1,0-0.1V10.4z"/>
			<path class="st0" d="M90.2,10c0-0.3,0-0.5,0-0.7h0.4l0,0.5h0c0.1-0.3,0.4-0.5,0.7-0.5c0,0,0.1,0,0.1,0v0.4c0,0-0.1,0-0.1,0
				c-0.3,0-0.5,0.2-0.6,0.5c0,0.1,0,0.1,0,0.2v1.3h-0.4V10z"/>
			<path class="st0" d="M93.1,11.6l0-0.3h0c-0.1,0.2-0.4,0.4-0.7,0.4c-0.5,0-0.7-0.3-0.7-0.7c0-0.6,0.5-0.9,1.4-0.9V10
				c0-0.2-0.1-0.5-0.5-0.5c-0.2,0-0.4,0.1-0.6,0.2l-0.1-0.3c0.2-0.1,0.5-0.2,0.8-0.2c0.7,0,0.9,0.5,0.9,1V11c0,0.2,0,0.4,0,0.6H93.1
				z M93,10.4c-0.5,0-1,0.1-1,0.5c0,0.3,0.2,0.4,0.4,0.4c0.3,0,0.5-0.2,0.6-0.4c0,0,0-0.1,0-0.1V10.4z"/>
		</g>
		<g>
			<path class="st0" d="M57.5,19.1c-0.1,0.1-0.5,0.1-0.9,0.1c-1,0-1.7-0.7-1.7-1.7c0-1.1,0.8-1.7,1.8-1.7c0.4,0,0.7,0.1,0.8,0.1
				l-0.1,0.5c-0.2-0.1-0.4-0.1-0.6-0.1c-0.7,0-1.2,0.4-1.2,1.2c0,0.7,0.4,1.2,1.1,1.2c0.2,0,0.5,0,0.7-0.1L57.5,19.1z"/>
			<path class="st0" d="M58.3,18.2c0,0.4,0.3,0.6,0.7,0.6c0.3,0,0.5,0,0.7-0.1l0.1,0.4c-0.2,0.1-0.5,0.2-0.8,0.2
				c-0.8,0-1.2-0.5-1.2-1.2c0-0.7,0.4-1.3,1.2-1.3c0.8,0,1,0.6,1,1.2c0,0.1,0,0.2,0,0.3H58.3z M59.4,17.8c0-0.2-0.1-0.6-0.5-0.6
				c-0.4,0-0.5,0.3-0.5,0.6H59.4z"/>
			<path class="st0" d="M60.4,17.6c0-0.3,0-0.6,0-0.8h0.5l0,0.5h0c0.1-0.3,0.4-0.5,0.6-0.5c0.1,0,0.1,0,0.1,0v0.6
				c-0.1,0-0.1,0-0.2,0c-0.3,0-0.5,0.2-0.5,0.5c0,0.1,0,0.1,0,0.2v1.2h-0.6V17.6z"/>
			<path class="st0" d="M63.5,19.2l0-0.3h0c-0.1,0.2-0.4,0.3-0.7,0.3c-0.5,0-0.7-0.3-0.7-0.7c0-0.6,0.5-0.9,1.4-0.9v0
				c0-0.2-0.1-0.4-0.5-0.4c-0.2,0-0.5,0.1-0.6,0.2L62.1,17c0.2-0.1,0.5-0.2,0.9-0.2c0.8,0,1,0.5,1,1v0.9c0,0.2,0,0.4,0,0.6H63.5z
				 M63.4,18c-0.4,0-0.8,0.1-0.8,0.4c0,0.2,0.2,0.3,0.3,0.3c0.2,0,0.4-0.2,0.5-0.3c0,0,0-0.1,0-0.1V18z M63.7,15.8l-0.6,0.7h-0.4
				l0.4-0.7H63.7z"/>
			<path class="st0" d="M64.6,17.5c0-0.3,0-0.5,0-0.7h0.5l0,0.3h0c0.1-0.2,0.3-0.4,0.7-0.4c0.3,0,0.6,0.2,0.7,0.4h0
				c0.1-0.1,0.2-0.2,0.3-0.3c0.1-0.1,0.3-0.1,0.5-0.1c0.4,0,0.8,0.3,0.8,1v1.4h-0.6v-1.3c0-0.4-0.1-0.6-0.4-0.6
				c-0.2,0-0.4,0.1-0.4,0.3c0,0.1,0,0.1,0,0.2v1.4H66v-1.4c0-0.3-0.1-0.6-0.4-0.6c-0.2,0-0.4,0.2-0.4,0.3c0,0.1,0,0.1,0,0.2v1.4
				h-0.6V17.5z"/>
			<path class="st0" d="M69.4,16.2c0,0.2-0.1,0.3-0.3,0.3c-0.2,0-0.3-0.1-0.3-0.3c0-0.2,0.1-0.3,0.3-0.3
				C69.2,15.8,69.4,16,69.4,16.2z M68.7,19.2v-2.4h0.6v2.4H68.7z"/>
			<path class="st0" d="M71.7,19.1c-0.1,0.1-0.4,0.1-0.7,0.1c-0.7,0-1.2-0.5-1.2-1.2c0-0.7,0.5-1.3,1.3-1.3c0.2,0,0.4,0,0.6,0.1
				l-0.1,0.5c-0.1,0-0.2-0.1-0.5-0.1c-0.5,0-0.7,0.3-0.7,0.8c0,0.5,0.3,0.8,0.7,0.8c0.2,0,0.4,0,0.5-0.1L71.7,19.1z"/>
			<path class="st0" d="M73.5,19.2l0-0.3h0c-0.1,0.2-0.4,0.3-0.7,0.3c-0.5,0-0.7-0.3-0.7-0.7c0-0.6,0.5-0.9,1.4-0.9v0
				c0-0.2-0.1-0.4-0.5-0.4c-0.2,0-0.5,0.1-0.6,0.2L72.2,17c0.2-0.1,0.5-0.2,0.9-0.2c0.8,0,1,0.5,1,1v0.9c0,0.2,0,0.4,0,0.6H73.5z
				 M73.4,18c-0.4,0-0.8,0.1-0.8,0.4c0,0.2,0.2,0.3,0.3,0.3c0.2,0,0.4-0.2,0.5-0.3c0,0,0-0.1,0-0.1V18z"/>
		</g>
	</g>
</g>
</svg>
