<?xml version="1.0" encoding="utf-8"?>
<!-- Generator: Adobe Illustrator 23.0.3, SVG Export Plug-In . SVG Version: 6.00 Build 0)  -->
<svg version="1.1" id="Capa_1" xmlns="http://www.w3.org/2000/svg" xmlns:xlink="http://www.w3.org/1999/xlink" x="0px" y="0px"
	 width="128.9px" height="57.1px" viewBox="0 0 128.9 57.1" style="enable-background:new 0 0 128.9 57.1;" xml:space="preserve">
<style type="text/css">
	.st0{fill:#FFFFFF;}
</style>
<g>
	<path class="st0" d="M36,4.6c0.4-0.4,0.3-1,0-1.4l-0.1-0.1c-1-1-2.3-1.5-3.7-1.5L9.4,2.7C8.6,2.7,8,3.2,7.8,4
		C7.8,4.2,7.6,4.4,7.4,4.6c-1.2,0.7-4.7,3.3-5,9.9C2.1,20.8,5,26.7,6.1,28.6c0.3,0.5,0.4,1,0.3,1.6l-0.2,1.4c-0.1,0.8,0,1.7,0.3,2.4
		l10.6,21.7c0.2,0.3,0.5,0.5,0.8,0.5h5.9c0.3,0,0.7-0.2,0.8-0.5L36,34.1c0.4-0.8,0.5-1.8,0.2-2.7l-6.3-16.7
		c-0.5-1.3-0.2-2.8,0.7-3.9L36,4.6z M13,14.4L8,24.6c-0.1,0.2-0.3,0.2-0.4,0c-1-2.2-5-12.3,3.1-16.8c0.2-0.1,1.4,1.9,2.3,3.4
		C13.5,12.2,13.5,13.4,13,14.4z"/>
	<g>
		<g>
			<path class="st0" d="M47.9,8.1h-2.7v2.5h3v0.8h-4v-7h3.8v0.8h-2.9v2.2h2.7V8.1z"/>
			<path class="st0" d="M49.2,10.5c0.3,0.2,0.8,0.4,1.2,0.4c0.7,0,1-0.3,1-0.8c0-0.4-0.3-0.7-0.9-0.9c-0.9-0.3-1.3-0.8-1.3-1.4
				c0-0.8,0.7-1.5,1.7-1.5c0.5,0,1,0.1,1.2,0.3l-0.2,0.7c-0.2-0.1-0.6-0.3-1-0.3c-0.5,0-0.8,0.3-0.8,0.7c0,0.4,0.3,0.6,1,0.9
				c0.9,0.3,1.3,0.8,1.3,1.5c0,0.9-0.7,1.5-1.9,1.5c-0.6,0-1.1-0.1-1.4-0.4L49.2,10.5z"/>
			<path class="st0" d="M57.1,11.2c-0.2,0.1-0.8,0.3-1.4,0.3c-1.5,0-2.5-1-2.5-2.6c0-1.6,1.1-2.7,2.7-2.7c0.5,0,1,0.1,1.3,0.3
				l-0.2,0.7C56.7,7.1,56.3,7,55.8,7c-1.2,0-1.8,0.9-1.8,1.9c0,1.2,0.8,1.9,1.8,1.9c0.5,0,0.9-0.1,1.1-0.2L57.1,11.2z"/>
			<path class="st0" d="M62.4,10c0,0.5,0,1,0,1.4h-0.8l0-0.8h0c-0.2,0.4-0.8,0.9-1.7,0.9c-0.8,0-1.7-0.4-1.7-2.2V6.4h0.9v2.8
				c0,1,0.3,1.6,1.1,1.6c0.6,0,1-0.4,1.2-0.8c0-0.1,0.1-0.3,0.1-0.5V6.4h0.9V10z"/>
			<path class="st0" d="M64.4,9c0,1.2,0.8,1.7,1.7,1.7c0.7,0,1.1-0.1,1.4-0.3l0.2,0.7c-0.3,0.1-0.9,0.3-1.7,0.3
				c-1.5,0-2.5-1-2.5-2.5c0-1.5,0.9-2.7,2.4-2.7c1.6,0,2.1,1.4,2.1,2.4c0,0.2,0,0.3,0,0.4H64.4z M67.1,8.4c0-0.6-0.2-1.5-1.3-1.5
				c-0.9,0-1.3,0.8-1.4,1.5H67.1z"/>
			<path class="st0" d="M69.2,4h0.9v7.4h-0.9V4z"/>
			<path class="st0" d="M74.4,11.4l-0.1-0.6h0c-0.3,0.4-0.8,0.8-1.5,0.8c-1,0-1.5-0.7-1.5-1.4c0-1.2,1.1-1.9,3-1.9V8.1
				c0-0.4-0.1-1.2-1.1-1.2c-0.5,0-1,0.1-1.3,0.4l-0.2-0.6c0.4-0.3,1-0.4,1.7-0.4c1.5,0,1.9,1.1,1.9,2.1v1.9c0,0.4,0,0.9,0.1,1.2
				H74.4z M74.3,8.8c-1,0-2.1,0.2-2.1,1.1c0,0.6,0.4,0.9,0.9,0.9c0.7,0,1.1-0.4,1.2-0.8c0-0.1,0-0.2,0-0.3V8.8z"/>
			<path class="st0" d="M83.2,4v6.1c0,0.4,0,1,0,1.3h-0.8l0-0.9h0c-0.3,0.6-0.9,1-1.7,1c-1.2,0-2.2-1-2.2-2.6c0-1.7,1-2.7,2.3-2.7
				c0.8,0,1.3,0.4,1.5,0.8h0V4H83.2z M82.3,8.4c0-0.1,0-0.3,0-0.4C82.1,7.4,81.6,7,80.9,7c-0.9,0-1.5,0.8-1.5,1.9
				c0,1,0.5,1.9,1.5,1.9c0.6,0,1.2-0.4,1.3-1.1c0-0.1,0-0.2,0-0.4V8.4z"/>
			<path class="st0" d="M85.2,9c0,1.2,0.8,1.7,1.7,1.7c0.7,0,1.1-0.1,1.4-0.3l0.2,0.7c-0.3,0.1-0.9,0.3-1.7,0.3
				c-1.5,0-2.5-1-2.5-2.5c0-1.5,0.9-2.7,2.4-2.7c1.6,0,2.1,1.4,2.1,2.4c0,0.2,0,0.3,0,0.4H85.2z M87.9,8.4c0-0.6-0.2-1.5-1.3-1.5
				c-0.9,0-1.3,0.8-1.4,1.5H87.9z"/>
			<path class="st0" d="M93.3,9.2l-0.7,2.2h-0.9l2.4-7h1.1l2.4,7h-1l-0.8-2.2H93.3z M95.6,8.5l-0.7-2c-0.2-0.5-0.3-0.9-0.4-1.3h0
				c-0.1,0.4-0.2,0.8-0.3,1.3l-0.7,2H95.6z"/>
			<path class="st0" d="M98.5,7.9c0-0.6,0-1.1,0-1.6h0.8l0,1h0c0.2-0.7,0.8-1.1,1.4-1.1c0.1,0,0.2,0,0.3,0v0.9c-0.1,0-0.2,0-0.3,0
				c-0.6,0-1.1,0.5-1.2,1.2c0,0.1,0,0.3,0,0.4v2.7h-0.9V7.9z"/>
			<path class="st0" d="M103.3,4.9v1.5h1.3V7h-1.3v2.7c0,0.6,0.2,1,0.7,1c0.2,0,0.4,0,0.5-0.1l0,0.7c-0.2,0.1-0.5,0.1-0.8,0.1
				c-0.4,0-0.8-0.1-1-0.4c-0.3-0.3-0.4-0.7-0.4-1.3V7h-0.8V6.4h0.8V5.1L103.3,4.9z"/>
			<path class="st0" d="M106.1,9c0,1.2,0.8,1.7,1.7,1.7c0.7,0,1.1-0.1,1.4-0.3l0.2,0.7c-0.3,0.1-0.9,0.3-1.7,0.3
				c-1.5,0-2.5-1-2.5-2.5c0-1.5,0.9-2.7,2.4-2.7c1.6,0,2.1,1.4,2.1,2.4c0,0.2,0,0.3,0,0.4H106.1z M108.8,8.4c0-0.6-0.2-1.5-1.3-1.5
				c-0.9,0-1.3,0.8-1.4,1.5H108.8z"/>
			<path class="st0" d="M44.3,17.4H48v0.8h-2.9v2.3h2.7v0.8h-2.7v3.2h-0.9V17.4z"/>
			<path class="st0" d="M49,21c0-0.6,0-1.1,0-1.6h0.8l0,1h0c0.2-0.7,0.8-1.1,1.4-1.1c0.1,0,0.2,0,0.3,0v0.9c-0.1,0-0.2,0-0.3,0
				c-0.6,0-1.1,0.5-1.2,1.2c0,0.1,0,0.3,0,0.4v2.7H49V21z"/>
			<path class="st0" d="M55.2,24.4l-0.1-0.6h0c-0.3,0.4-0.8,0.8-1.5,0.8c-1,0-1.5-0.7-1.5-1.4c0-1.2,1.1-1.9,3-1.9v-0.1
				c0-0.4-0.1-1.2-1.1-1.2c-0.5,0-1,0.1-1.3,0.4l-0.2-0.6c0.4-0.3,1-0.4,1.7-0.4c1.5,0,1.9,1.1,1.9,2.1v1.9c0,0.4,0,0.9,0.1,1.2
				H55.2z M55,21.8c-1,0-2.1,0.2-2.1,1.1c0,0.6,0.4,0.9,0.9,0.9c0.7,0,1.1-0.4,1.2-0.8c0-0.1,0-0.2,0-0.3V21.8z"/>
			<path class="st0" d="M57.4,20.7c0-0.5,0-0.9,0-1.4h0.8l0,0.8h0c0.2-0.5,0.8-0.9,1.7-0.9c0.7,0,1.8,0.4,1.8,2.1v3h-0.9v-2.9
				c0-0.8-0.3-1.5-1.2-1.5c-0.6,0-1.1,0.4-1.2,0.9c0,0.1-0.1,0.3-0.1,0.4v3h-0.9V20.7z"/>
			<path class="st0" d="M66.8,24.2c-0.2,0.1-0.8,0.3-1.4,0.3c-1.5,0-2.5-1-2.5-2.6c0-1.6,1.1-2.7,2.7-2.7c0.5,0,1,0.1,1.3,0.3
				l-0.2,0.7C66.4,20.1,66,20,65.5,20c-1.1,0-1.8,0.9-1.8,1.9c0,1.2,0.8,1.9,1.8,1.9c0.5,0,0.9-0.1,1.1-0.2L66.8,24.2z"/>
			<path class="st0" d="M68.9,18c0,0.3-0.2,0.6-0.6,0.6c-0.3,0-0.6-0.3-0.6-0.6c0-0.3,0.2-0.6,0.6-0.6C68.7,17.4,68.9,17.6,68.9,18z
				 M67.9,24.4v-5h0.9v5H67.9z"/>
			<path class="st0" d="M70.2,23.5c0.3,0.2,0.8,0.4,1.2,0.4c0.7,0,1-0.3,1-0.8c0-0.4-0.3-0.7-0.9-0.9c-0.9-0.3-1.3-0.8-1.3-1.4
				c0-0.8,0.7-1.5,1.7-1.5c0.5,0,1,0.1,1.2,0.3l-0.2,0.7c-0.2-0.1-0.6-0.3-1-0.3c-0.5,0-0.8,0.3-0.8,0.7c0,0.4,0.3,0.6,1,0.9
				c0.9,0.3,1.3,0.8,1.3,1.5c0,0.9-0.7,1.5-1.9,1.5c-0.6,0-1.1-0.1-1.4-0.4L70.2,23.5z"/>
			<path class="st0" d="M78,24.2c-0.2,0.1-0.8,0.3-1.4,0.3c-1.5,0-2.5-1-2.5-2.6c0-1.6,1.1-2.7,2.7-2.7c0.5,0,1,0.1,1.3,0.3
				l-0.2,0.7c-0.2-0.1-0.6-0.2-1.1-0.2c-1.1,0-1.8,0.9-1.8,1.9c0,1.2,0.8,1.9,1.8,1.9c0.5,0,0.9-0.1,1.1-0.2L78,24.2z"/>
			<path class="st0" d="M83.6,21.9c0,1.9-1.3,2.7-2.5,2.7c-1.4,0-2.4-1-2.4-2.6c0-1.7,1.1-2.7,2.5-2.7
				C82.6,19.3,83.6,20.3,83.6,21.9z M79.6,21.9c0,1.1,0.6,1.9,1.5,1.9c0.9,0,1.5-0.8,1.5-2c0-0.9-0.4-1.9-1.5-1.9
				C80.1,20,79.6,21,79.6,21.9z"/>
			<path class="st0" d="M88.1,22.2l-0.7,2.2h-0.9l2.4-7H90l2.4,7h-1l-0.8-2.2H88.1z M90.5,21.5l-0.7-2c-0.2-0.5-0.3-0.9-0.4-1.3h0
				c-0.1,0.4-0.2,0.8-0.3,1.3l-0.7,2H90.5z"/>
			<path class="st0" d="M93.3,17h0.9v7.4h-0.9V17z"/>
			<path class="st0" d="M99.4,24.2c-0.2,0.1-0.8,0.3-1.4,0.3c-1.5,0-2.5-1-2.5-2.6c0-1.6,1.1-2.7,2.7-2.7c0.5,0,1,0.1,1.3,0.3
				l-0.2,0.7C99,20.1,98.6,20,98.1,20c-1.1,0-1.8,0.9-1.8,1.9c0,1.2,0.8,1.9,1.8,1.9c0.5,0,0.9-0.1,1.1-0.2L99.4,24.2z"/>
			<path class="st0" d="M103.3,24.4l-0.1-0.6h0c-0.3,0.4-0.8,0.8-1.5,0.8c-1,0-1.5-0.7-1.5-1.4c0-1.2,1.1-1.9,3-1.9v-0.1
				c0-0.4-0.1-1.2-1.1-1.2c-0.5,0-1,0.1-1.3,0.4l-0.2-0.6c0.4-0.3,1-0.4,1.7-0.4c1.5,0,1.9,1.1,1.9,2.1v1.9c0,0.4,0,0.9,0.1,1.2
				H103.3z M103.1,21.8c-1,0-2.1,0.2-2.1,1.1c0,0.6,0.4,0.9,0.9,0.9c0.7,0,1.1-0.4,1.2-0.8c0-0.1,0-0.2,0-0.3V21.8z M103.6,17.2
				l-1.3,1.5h-0.6l0.9-1.5H103.6z"/>
			<path class="st0" d="M105.5,20.7c0-0.5,0-0.9,0-1.4h0.8l0,0.8h0c0.2-0.5,0.8-0.9,1.7-0.9c0.7,0,1.8,0.4,1.8,2.1v3h-0.9v-2.9
				c0-0.8-0.3-1.5-1.2-1.5c-0.6,0-1.1,0.4-1.2,0.9c0,0.1-0.1,0.3-0.1,0.4v3h-0.9V20.7z"/>
			<path class="st0" d="M112.3,17.9v1.5h1.3v0.7h-1.3v2.7c0,0.6,0.2,1,0.7,1c0.2,0,0.4,0,0.5-0.1l0,0.7c-0.2,0.1-0.5,0.1-0.8,0.1
				c-0.4,0-0.8-0.1-1-0.4c-0.3-0.3-0.4-0.7-0.4-1.3v-2.8h-0.8v-0.7h0.8v-1.2L112.3,17.9z"/>
			<path class="st0" d="M117.5,24.4l-0.1-0.6h0c-0.3,0.4-0.8,0.8-1.5,0.8c-1,0-1.5-0.7-1.5-1.4c0-1.2,1.1-1.9,3-1.9v-0.1
				c0-0.4-0.1-1.2-1.1-1.2c-0.5,0-1,0.1-1.3,0.4l-0.2-0.6c0.4-0.3,1-0.4,1.7-0.4c1.5,0,1.9,1.1,1.9,2.1v1.9c0,0.4,0,0.9,0.1,1.2
				H117.5z M117.3,21.8c-1,0-2.1,0.2-2.1,1.1c0,0.6,0.4,0.9,0.9,0.9c0.7,0,1.1-0.4,1.2-0.8c0-0.1,0-0.2,0-0.3V21.8z"/>
			<path class="st0" d="M119.7,21c0-0.6,0-1.1,0-1.6h0.8l0,1h0c0.2-0.7,0.8-1.1,1.4-1.1c0.1,0,0.2,0,0.3,0v0.9c-0.1,0-0.2,0-0.3,0
				c-0.6,0-1.1,0.5-1.2,1.2c0,0.1,0,0.3,0,0.4v2.7h-0.9V21z"/>
			<path class="st0" d="M125.9,24.4l-0.1-0.6h0c-0.3,0.4-0.8,0.8-1.5,0.8c-1,0-1.5-0.7-1.5-1.4c0-1.2,1.1-1.9,3-1.9v-0.1
				c0-0.4-0.1-1.2-1.1-1.2c-0.5,0-1,0.1-1.3,0.4l-0.2-0.6c0.4-0.3,1-0.4,1.7-0.4c1.5,0,1.9,1.1,1.9,2.1v1.9c0,0.4,0,0.9,0.1,1.2
				H125.9z M125.7,21.8c-1,0-2.1,0.2-2.1,1.1c0,0.6,0.4,0.9,0.9,0.9c0.7,0,1.1-0.4,1.2-0.8c0-0.1,0-0.2,0-0.3V21.8z"/>
		</g>
		<g>
			<path class="st0" d="M49.7,40.5c-0.3,0.2-1,0.3-1.8,0.3c-2.2,0-3.6-1.4-3.6-3.5c0-2.3,1.6-3.7,3.8-3.7c0.8,0,1.4,0.2,1.7,0.3
				l-0.3,1c-0.3-0.1-0.8-0.3-1.4-0.3c-1.4,0-2.5,0.9-2.5,2.6c0,1.5,0.9,2.5,2.4,2.5c0.5,0,1.1-0.1,1.4-0.3L49.7,40.5z"/>
			<path class="st0" d="M51.4,38.5c0,0.9,0.7,1.3,1.6,1.3c0.6,0,1-0.1,1.4-0.2l0.2,0.9c-0.4,0.2-1,0.3-1.8,0.3c-1.6,0-2.6-1-2.6-2.6
				c0-1.4,0.9-2.7,2.5-2.7c1.6,0,2.2,1.4,2.2,2.5c0,0.2,0,0.4,0,0.5H51.4z M53.7,37.7c0-0.5-0.2-1.2-1.1-1.2c-0.8,0-1.1,0.7-1.2,1.2
				H53.7z"/>
			<path class="st0" d="M55.9,37.3c0-0.7,0-1.2,0-1.6H57l0,1h0c0.2-0.7,0.8-1.1,1.4-1.1c0.1,0,0.2,0,0.3,0v1.2c-0.1,0-0.2,0-0.4,0
				c-0.6,0-1,0.4-1.2,1c0,0.1,0,0.2,0,0.4v2.6h-1.3V37.3z"/>
			<path class="st0" d="M62.4,40.7l-0.1-0.6h0c-0.3,0.4-0.8,0.7-1.5,0.7c-1,0-1.6-0.7-1.6-1.5c0-1.3,1.1-1.9,3-1.9v-0.1
				c0-0.3-0.1-0.9-1-0.9c-0.5,0-1,0.2-1.4,0.4L59.5,36c0.4-0.2,1-0.5,1.8-0.5c1.6,0,2.1,1,2.1,2.1v1.8c0,0.5,0,0.9,0.1,1.2H62.4z
				 M62.2,38.2c-0.9,0-1.8,0.2-1.8,1c0,0.5,0.3,0.7,0.7,0.7c0.5,0,0.9-0.3,1-0.7c0-0.1,0-0.2,0-0.3V38.2z M63,33.5L61.7,35h-0.9
				l0.9-1.5H63z"/>
			<path class="st0" d="M64.8,37.2c0-0.6,0-1.1,0-1.5h1.1l0.1,0.7h0c0.2-0.4,0.7-0.9,1.6-0.9c0.7,0,1.2,0.4,1.4,0.9h0
				c0.2-0.3,0.4-0.5,0.6-0.6c0.3-0.2,0.6-0.3,1-0.3c0.8,0,1.7,0.6,1.7,2.2v3h-1.3v-2.8c0-0.8-0.3-1.3-0.9-1.3
				c-0.4,0-0.8,0.3-0.9,0.7c0,0.1-0.1,0.3-0.1,0.4v3h-1.3v-2.9c0-0.7-0.3-1.2-0.9-1.2c-0.5,0-0.8,0.4-0.9,0.7c0,0.1-0.1,0.3-0.1,0.4
				v3h-1.3V37.2z"/>
			<path class="st0" d="M75,34.2c0,0.4-0.3,0.7-0.7,0.7c-0.4,0-0.7-0.3-0.7-0.7c0-0.4,0.3-0.7,0.7-0.7C74.8,33.5,75,33.8,75,34.2z
				 M73.7,40.7v-5.1H75v5.1H73.7z"/>
			<path class="st0" d="M80.1,40.6c-0.3,0.1-0.8,0.3-1.4,0.3c-1.6,0-2.6-1-2.6-2.6c0-1.5,1-2.7,2.8-2.7c0.5,0,0.9,0.1,1.2,0.2
				l-0.2,1c-0.2-0.1-0.5-0.2-1-0.2c-1,0-1.6,0.7-1.6,1.6c0,1,0.7,1.6,1.6,1.6c0.4,0,0.8-0.1,1-0.2L80.1,40.6z"/>
			<path class="st0" d="M83.9,40.7l-0.1-0.6h0c-0.3,0.4-0.8,0.7-1.5,0.7c-1,0-1.6-0.7-1.6-1.5c0-1.3,1.1-1.9,3-1.9v-0.1
				c0-0.3-0.1-0.9-1-0.9c-0.5,0-1,0.2-1.4,0.4L81,36c0.4-0.2,1-0.5,1.8-0.5c1.6,0,2.1,1,2.1,2.1v1.8c0,0.5,0,0.9,0.1,1.2H83.9z
				 M83.7,38.2c-0.9,0-1.8,0.2-1.8,1c0,0.5,0.3,0.7,0.7,0.7c0.5,0,0.9-0.3,1-0.7c0-0.1,0-0.2,0-0.3V38.2z"/>
		</g>
	</g>
</g>
</svg>
