<?xml version="1.0" encoding="utf-8"?>
<!-- Generator: Adobe Illustrator 23.0.3, SVG Export Plug-In . SVG Version: 6.00 Build 0)  -->
<svg version="1.1" id="Capa_1" xmlns="http://www.w3.org/2000/svg" xmlns:xlink="http://www.w3.org/1999/xlink" x="0px" y="0px"
	 viewBox="0 0 690 690" style="enable-background:new 0 0 690 690;" xml:space="preserve">
<style type="text/css">
	.st0{fill:#45B6F4;}
	.st1{display:none;fill:#53B0E3;}
	.st2{fill:#00EEAB;}
	.st3{fill:#FF473A;}
	.st4{fill:#FF99E9;}
	.st5{fill:#FFEF00;}
	.st6{fill:none;stroke:#FF99E9;stroke-width:4;stroke-miterlimit:10;}
	.st7{fill:#2465EE;}
	.st8{clip-path:url(#SVGID_2_);fill:none;stroke:#2465EE;stroke-width:4;stroke-miterlimit:10;}
	.st9{fill:#FCE2DE;}
	.st10{fill:#FFFFFF;}
	.st11{fill:#F4C6C1;}
	.st12{fill:#1A1A1A;}
	.st13{fill:#F9D8D4;}
	.st14{fill:#FF3833;}
	.st15{clip-path:url(#SVGID_4_);}
	.st16{clip-path:url(#SVGID_6_);fill:none;stroke:#FFEF00;stroke-width:4;stroke-miterlimit:10;}
	.st17{clip-path:url(#SVGID_4_);fill:#FFEF00;}
	.st18{display:none;fill:#FF99E9;}
	.st19{clip-path:url(#SVGID_8_);fill:none;stroke:#2465EE;stroke-width:4.4474;stroke-miterlimit:10;}
	.st20{clip-path:url(#SVGID_8_);fill:none;stroke:#2465EE;stroke-width:4.9509;stroke-miterlimit:10;}
	.st21{clip-path:url(#SVGID_10_);fill:none;stroke:#FFEF00;stroke-width:4.4584;stroke-miterlimit:10;}
	.st22{clip-path:url(#SVGID_12_);fill:none;stroke:#FFEF00;stroke-width:5.6507;stroke-miterlimit:10;}
	.st23{fill:none;stroke:#00EEAB;stroke-width:5.6507;stroke-miterlimit:10;}
	.st24{clip-path:url(#SVGID_14_);fill:none;stroke:#FFEF00;stroke-width:5.6507;stroke-miterlimit:10;}
	.st25{opacity:0.29;fill:#333333;}
	.st26{display:none;clip-path:url(#SVGID_16_);fill:#FFEF00;}
	.st27{clip-path:url(#SVGID_16_);}
	.st28{clip-path:url(#SVGID_18_);fill:none;stroke:#2465EE;stroke-width:5.5388;stroke-miterlimit:10;}
	.st29{clip-path:url(#SVGID_16_);fill:#2465EE;}
	.st30{clip-path:url(#SVGID_16_);fill:#FF99E9;}
	.st31{clip-path:url(#SVGID_20_);fill:none;stroke:#FFEF00;stroke-width:5.5388;stroke-miterlimit:10;}
</style>
<rect x="-56" y="-57" class="st1" width="2325" height="800"/>
<g>
	<path class="st4" d="M293.2,320h-158c-28.7,0-52-23.3-52-52v0c0-28.7,23.3-52,52-52h158c28.7,0,52,23.3,52,52v0
		C345.2,296.7,321.9,320,293.2,320z"/>
	<path class="st4" d="M499,644H123c-39.8,0-72-32.2-72-72v0c0-39.8,32.2-72,72-72h376c39.8,0,72,32.2,72,72v0
		C571,611.8,538.8,644,499,644z"/>
	<path class="st4" d="M549,500H331c-49.7,0-90-40.3-90-90v0c0-49.7,40.3-90,90-90h218c49.7,0,90,40.3,90,90v0
		C639,459.7,598.7,500,549,500z"/>
</g>
<path class="st18" d="M298.3,320h-158c-28.7,0-52-23.3-52-52v0c0-28.7,23.3-52,52-52h158c28.7,0,52,23.3,52,52v0
	C350.3,296.7,327,320,298.3,320z"/>
<path class="st18" d="M504.1,644h-376c-39.8,0-72-32.2-72-72v0c0-39.8,32.2-72,72-72h376c39.8,0,72,32.2,72,72v0
	C576.1,611.8,543.9,644,504.1,644z"/>
<path class="st18" d="M554.1,500h-218c-49.7,0-90-40.3-90-90v0c0-49.7,40.3-90,90-90h218c49.7,0,90,40.3,90,90v0
	C644.1,459.7,603.8,500,554.1,500z"/>
<g>
	<path class="st5" d="M209.5,356.9c0,0-114.6-36.9-66.8-77.9S209.5,356.9,209.5,356.9z"/>
	<path class="st5" d="M200.2,383.2c0,0-89.2,80.8-100.8,18.9S200.2,383.2,200.2,383.2z"/>
	<path class="st5" d="M237,351.7c0,0-25.4-117.7,34-96.8S237,351.7,237,351.7z"/>
	<rect x="220" y="249.6" transform="matrix(0.7579 -0.6523 0.6523 0.7579 -188.374 234.69)" class="st4" width="4" height="243.2"/>
	<polygon class="st4" points="99.8,404.1 99,400.2 226.2,376.3 269.2,254.2 272.9,255.6 229.2,379.8 	"/>
</g>
<rect x="209.7" y="221.7" class="st2" width="4" height="272.5"/>
<g>
	<path class="st2" d="M211.8,246.9L211.8,246.9L211.8,246.9c0,0-11.7,1.1-15.4,0c-4.5-1.4-5-7.9-2.3-11.8v0c2.6-3.9,8.8-6,11.8-2.3
		C208.3,235.6,211.8,246.9,211.8,246.9z"/>
	<path class="st2" d="M211.7,246.9L211.7,246.9L211.7,246.9c0,0,11.7,1.1,15.4,0c4.5-1.4,5-7.9,2.3-11.8v0c-2.6-3.9-8.8-6-11.8-2.3
		C215.1,235.6,211.7,246.9,211.7,246.9z"/>
</g>
<circle class="st7" cx="211.7" cy="222.3" r="8.5"/>
<g>
	<path class="st2" d="M168.2,570.1c5.2,7.2,11,13.8,17.4,19.7c5.1,4.8,11,8.3,17.1,10.7l30.5-33L168.2,570.1z"/>
	<path class="st2" d="M236.4,560.2l1.5-65.5c-12.2-7.4-25.9-13.1-41.1-17l8.6,54L236.4,560.2z"/>
	<path class="st2" d="M137.2,474.5c1.3,18.7,4.4,35.9,9.3,51.4l50.8,4.1L137.2,474.5z"/>
	<path class="st2" d="M192.2,476.5c-15.9-3.7-33.2-5.4-52-5.2l60.1,55.5L192.2,476.5z"/>
	<path class="st2" d="M207.3,602c18.3,5.3,38.8,0.6,53-13.6l-21.8-20.2L207.3,602z"/>
	<path class="st2" d="M258.9,510.5c-5.2-4.8-10.7-9.1-16.7-13.1l-1.4,61.9l25.1-27.1l0.4-13.4C264.1,515.9,261.7,513.1,258.9,510.5z
		"/>
	<path class="st2" d="M241.5,565l21.8,20.2c0.3-0.4,0.6-0.7,0.9-1.1l1.4-45.1L241.5,565z"/>
	<path class="st7" d="M265.6,539l0.2-6.7l-25.1,27.1l1.4-61.9c-1.4-0.9-2.9-1.9-4.3-2.8l-1.5,65.5l-30.9-28.6l-8.6-54
		c-1.5-0.4-3.1-0.8-4.6-1.1l8,50.3l-60.1-55.5c-1.1,0-2.1,0-3.2,0h0v0c0.1,1.1,0.1,2.1,0.2,3.2l60.1,55.5l-50.8-4.1
		c0.5,1.5,1,3,1.5,4.5l54.5,4.4l30.6,28.3l-67.8,2.7c1,1.4,1.9,2.9,3,4.3l65-2.5l-30.5,33c1.5,0.6,3,1.1,4.6,1.5l31.2-33.8
		l21.8,20.2c0.5-0.5,1-1,1.5-1.6s1-1.1,1.5-1.7L241.5,565L265.6,539z"/>
	<path class="st2" d="M202.5,534.9l-54.5-4.4c4.5,13,10.2,24.8,17.2,35.3l67.8-2.7L202.5,534.9z"/>
</g>
<path class="st5" d="M530.2,445.4L530.2,445.4L530.2,445.4L530.2,445.4c-56.3,2.9-99.9,20.8-129.2,52.2c-22.1,23.7-20.9,60.8,2.8,83
	s60.8,20.9,83-2.8C516.1,546.4,531.1,501.7,530.2,445.4z"/>
<g>
	<g>
		<path class="st5" d="M465.6,211.5c0,0-37.9-143.4,0-143.4S465.6,211.5,465.6,211.5z"/>
		<path class="st5" d="M465.6,211.5c0,0-104.5-105.2-71.7-124.2S465.6,211.5,465.6,211.5z"/>
		<path class="st5" d="M465.6,211.5c0,0-143.1-38.8-124.2-71.7C360.4,107,465.6,211.5,465.6,211.5z"/>
		<path class="st5" d="M465.6,211.5c0,0,105.2-104.5,124.2-71.7C608.7,172.7,465.6,211.5,465.6,211.5z"/>
		<path class="st5" d="M465.6,211.5c0,0,38.8-143.1,71.7-124.2S465.6,211.5,465.6,211.5z"/>
	</g>
	<rect x="457.1" y="208.9" class="st7" width="16.9" height="372.8"/>
</g>
<g>
	<g>
		<g>
			<path class="st9" d="M366.4,273.5c-4.7,0-8.5,3.8-8.5,8.5c0,4.7,3.8,8.5,8.5,8.5h21.3v-17.1H366.4z"/>
			<path class="st9" d="M438.9,273.5h-21.3v17.1h21.3c4.7,0,8.5-3.8,8.5-8.5C447.4,277.3,443.6,273.5,438.9,273.5z"/>
		</g>
		<circle class="st3" cx="402.6" cy="285.2" r="32"/>
		<path class="st9" d="M413.3,270.3c-4.2,0-8,1.7-10.7,4.5c-2.7-2.8-6.5-4.5-10.7-4.5c-8.2,0-14.9,6.7-14.9,14.9
			c0,8.2,6.7,14.9,14.9,14.9c4.2,0,8-1.7,10.7-4.5c2.7,2.8,6.5,4.5,10.7,4.5c8.2,0,14.9-6.7,14.9-14.9
			C428.2,276.9,421.5,270.3,413.3,270.3z"/>
		<circle class="st10" cx="402.6" cy="300.1" r="10.7"/>
		<circle class="st3" cx="399.4" cy="296.9" r="1.1"/>
		<circle class="st3" cx="405.8" cy="296.9" r="1.1"/>
		<circle class="st10" cx="392" cy="285.2" r="5.3"/>
		<circle cx="392" cy="285.2" r="3.3"/>
		<circle class="st10" cx="413.3" cy="285.2" r="5.3"/>
		<circle cx="413.3" cy="285.2" r="3.3"/>
		<g>
			<rect x="400.5" y="248.9" class="st3" width="4.3" height="6.4"/>
		</g>
	</g>
	
		<rect x="180" y="365.2" transform="matrix(-1.836970e-16 1 -1 -1.836970e-16 816.0754 123.3175)" class="st11" width="332.8" height="209"/>
	<g>
		<path class="st7" d="M450.9,328.9v-25.6H421c0,9-1.6,17.6-4.5,25.6H450.9z"/>
		<path class="st7" d="M276.2,328.9c-2.9-8-4.5-16.6-4.5-25.6h-29.9v25.6H276.2z"/>
		<path class="st7" d="M346.4,378c-21.4,0-40.7-9-54.3-23.5h-50.2v25.6h209v-25.6h-50.2C387.1,369,367.8,378,346.4,378z"/>
		<rect x="241.9" y="405.7" class="st7" width="209" height="4.3"/>
		<rect x="241.9" y="410" class="st7" width="209" height="21.3"/>
		<rect x="241.9" y="456.9" class="st7" width="209" height="25.6"/>
		<rect x="241.9" y="508.1" class="st7" width="209" height="25.6"/>
		<rect x="241.9" y="559.3" class="st7" width="209" height="25.6"/>
		<rect x="241.9" y="610.5" class="st7" width="209" height="33.6"/>
		<path class="st10" d="M400.7,354.5h50.2v-25.6h-34.4C413,338.5,407.6,347.2,400.7,354.5z"/>
		<path class="st10" d="M276.2,328.9h-34.4v25.6h50.2C285.2,347.2,279.7,338.5,276.2,328.9z"/>
		<rect x="241.9" y="380.1" class="st10" width="209" height="25.6"/>
		<rect x="241.9" y="431.3" class="st10" width="209" height="25.6"/>
		<rect x="241.9" y="482.5" class="st10" width="209" height="25.6"/>
		<rect x="241.9" y="533.7" class="st10" width="209" height="25.6"/>
		<rect x="241.9" y="584.9" class="st10" width="209" height="25.6"/>
	</g>
	<rect x="312.3" y="183.9" class="st11" width="68.3" height="119.4"/>
	<path class="st11" d="M241.8,303.3L241.8,303.3l0,204.8h-64V367.3C177.9,332,206.5,303.3,241.8,303.3z"/>
	<path class="st9" d="M327.2,294.8h-14.9V282h14.9c3.5,0,6.4,2.9,6.4,6.4v0C333.6,291.9,330.7,294.8,327.2,294.8z"/>
	<path class="st9" d="M433.6,320.4v-17.1h12.8v17.1c0,3.5-2.9,6.4-6.4,6.4l0,0C436.4,326.8,433.6,323.9,433.6,320.4z"/>
	<g>
		<path class="st3" d="M284.6,185l-18.5,0c-2.9,0-5.3-2.4-5.3-5.3v0c0-2.9,2.4-5.3,5.3-5.3h18.5c2.9,0,5.3,2.4,5.3,5.3v0
			C289.9,182.6,287.5,185,284.6,185z"/>
		<circle class="st11" cx="327.2" cy="185" r="53.3"/>
		<path class="st12" d="M273.9,185c5.8,3.4,12.5,5.3,19.7,5.3c7.2,0,13.9-1.9,19.7-5.3L273.9,185z"/>
		<path class="st12" d="M310.1,148.7c9.4,0,17.1-7.6,17.1-17.1c-11.5,0-22.2,3.7-31,9.9C299.3,145.9,304.4,148.7,310.1,148.7z"/>
		<path class="st12" d="M327.2,131.7c0,21.2,17.2,38.4,38.4,38.4c4.3,0,8.4-0.7,12.2-2C370.7,146.9,350.7,131.7,327.2,131.7z"/>
		<path class="st12" d="M293.1,131.7c0,3.7,1.2,7.1,3.2,9.9c8.7-6.2,19.4-9.9,31-9.9L293.1,131.7z"/>
	</g>
	<g>
		<rect x="309.1" y="401.5" class="st3" width="17.1" height="106.6"/>
		<path class="st3" d="M278.1,508.1h-36.3c0,0,0-43.2,0-51.2c0-21.3,3.8-72.5,53.3-72.5l16,0v92.8L278.1,508.1z"/>
		<path class="st9" d="M341,495.3h-14.9v-17.1h-17.1v29.9h17.1H341c3.5,0,6.4-2.9,6.4-6.4C347.4,498.2,344.6,495.3,341,495.3z"/>
		<path class="st13" d="M312.4,508.1h-32v-12.8h32c3.5,0,6.4,2.9,6.4,6.4l0,0C318.8,505.2,315.9,508.1,312.4,508.1z"/>
		<circle class="st14" cx="278.1" cy="477.7" r="32"/>
		<g>
			<g>
				<path class="st9" d="M288.8,364.1c-4.7,0-8.5,3.8-8.5,8.5c0,4.7,3.8,8.5,8.5,8.5h21.3v-17.1H288.8z"/>
				<path class="st9" d="M361.3,364.1H340v17.1h21.3c4.7,0,8.5-3.8,8.5-8.5C369.8,367.9,366,364.1,361.3,364.1z"/>
			</g>
			<circle class="st3" cx="325" cy="375.8" r="32"/>
			<path class="st9" d="M335.7,360.9c-4.2,0-8,1.7-10.7,4.5c-2.7-2.8-6.5-4.5-10.7-4.5c-8.2,0-14.9,6.7-14.9,14.9
				c0,8.2,6.7,14.9,14.9,14.9c4.2,0,8-1.7,10.7-4.5c2.7,2.8,6.5,4.5,10.7,4.5c8.2,0,14.9-6.7,14.9-14.9
				C350.6,367.6,344,360.9,335.7,360.9z"/>
			<circle class="st10" cx="325" cy="390.8" r="10.7"/>
			<circle class="st3" cx="321.8" cy="387.6" r="1.1"/>
			<circle class="st3" cx="328.2" cy="387.6" r="1.1"/>
			<circle class="st10" cx="314.4" cy="375.8" r="5.3"/>
			<circle cx="314.4" cy="375.8" r="3.3"/>
			<circle class="st10" cx="335.7" cy="375.8" r="5.3"/>
			<circle cx="335.7" cy="375.8" r="3.3"/>
			<g>
				<rect x="322.9" y="339.6" class="st3" width="4.3" height="5.3"/>
			</g>
		</g>
	</g>
	<path class="st11" d="M393.3,540.1c0-5.9-4.8-10.7-10.7-10.7c6,0,10.9-5,10.7-11.1c-0.2-5.8-5.1-10.3-10.9-10.3H177.9v0
		c0,35.3,28.6,64,64,64h140.5c5.8,0,10.7-4.5,10.9-10.3c0.2-6.1-4.6-11.1-10.7-11.1C388.5,550.8,393.3,546,393.3,540.1z"/>
	<path class="st11" d="M450.9,303.3L450.9,303.3l0,292.8h64V367.3C514.9,332,486.3,303.3,450.9,303.3z"/>
</g>
<g>
	<path class="st3" d="M276,609.9c-2.4,0-4.3,1.9-4.3,4.3c0,5.9-4.8,10.7-10.7,10.7c-5.9,0-10.7-4.8-10.7-10.7c0-0.2,0-0.4,0-0.5
		v-41.2h-8.5v41.2h0.1c0,0.2,0,0.4,0,0.5c0,10.6,8.6,19.2,19.2,19.2c10.6,0,19.2-8.6,19.2-19.2C280.3,611.8,278.3,609.9,276,609.9z"
		/>
	<path class="st9" d="M277.3,603.9L277.3,603.9C277.3,603.9,277.3,603.9,277.3,603.9c-3.5-5.6-9.6-8.9-16.2-8.9
		c-2.4,0-4.3,1.9-4.3,4.3s1.9,4.3,4.3,4.3c3.7,0,7,1.9,9,5l0,0c1.1,1.7,1.7,3.7,1.7,5.7h8.5C280.3,610.5,279.2,606.9,277.3,603.9z"
		/>
</g>
<g>
	<path class="st5" d="M238,591c-22.3-6.9-47.7-3.7-75,10.1l0,0v0c10.7,19.6,23.8,33.9,38.7,43h49.4c3.6-3.6,6.4-8,8-13.2
		C264.3,614.1,254.8,596.2,238,591z"/>
	<path class="st2" d="M472,586.5l2.5-49.7c-11.7,4.4-22.3,10-31.6,16.7l4.3,61.6L472,586.5z"/>
	<path class="st2" d="M439,556.3c-6.4,4.9-12.2,10.4-17.5,16.4c-4.2,4.8-7.3,10.2-9.2,15.9l30.8,26.8L439,556.3z"/>
	<path class="st2" d="M449.9,618l59.6-0.5c6.4-11.3,11.2-23.9,14.4-37.8l-48.9,9.4L449.9,618z"/>
	<path class="st2" d="M525.1,525.4c-17,1.7-32.6,5-46.5,9.9l-2.3,46.3L525.1,525.4z"/>
	<path class="st2" d="M524.8,575.5c2.9-14.5,4-30.4,3.3-47.5l-48.8,56.2L524.8,575.5z"/>
	<path class="st2" d="M411.1,592.8c-4.3,16.8,0.5,35.3,13.9,47.9l17.7-20.4L411.1,592.8z"/>
	<path class="st2" d="M495.8,637.2c4.2-4.8,8-10,11.4-15.6l-56.4,0.4l25.4,22h12.2C491,642.1,493.5,639.8,495.8,637.2z"/>
	<path class="st2" d="M445.7,622.9L428,643.3c0.3,0.3,0.7,0.5,1,0.8h41.1L445.7,622.9z"/>
	<path class="st5" d="M470.1,644.1h6.1l-25.4-22l56.4-0.4c0.8-1.3,1.6-2.7,2.4-4l-59.6,0.5l25.1-28.9l48.9-9.4
		c0.3-1.4,0.6-2.8,0.9-4.2l-45.5,8.7l48.8-56.2c0-1-0.1-1.9-0.1-2.9v0h0c-1,0.1-1.9,0.2-2.9,0.3l-48.8,56.2l2.3-46.3
		c-1.4,0.5-2.7,1-4.1,1.5l-2.5,49.7l-24.9,28.6l-4.3-61.6c-1.3,0.9-2.6,1.8-3.8,2.8l4.1,59.1l-30.8-26.8c-0.5,1.4-0.9,2.8-1.3,4.2
		l31.6,27.5L425,640.7c0.5,0.5,1,0.9,1.5,1.3s1,0.9,1.5,1.3l17.7-20.4L470.1,644.1z"/>
</g>
<g>
	<path class="st5" d="M336.3,623.5c-11.3,0-20.5,9.2-20.5,20.5h41.1C356.9,632.7,347.7,623.5,336.3,623.5z"/>
	<path class="st5" d="M377.4,623.5c-11.3,0-20.5,9.2-20.5,20.5h41.1C397.9,632.7,388.7,623.5,377.4,623.5z"/>
	<path class="st5" d="M418.5,623.5c-11.3,0-20.5,9.2-20.5,20.5H439C439,632.7,429.8,623.5,418.5,623.5z"/>
</g>
</svg>
