<?xml version="1.0" encoding="utf-8"?>
<!-- Generator: Adobe Illustrator 23.0.3, SVG Export Plug-In . SVG Version: 6.00 Build 0)  -->
<svg version="1.1" id="Capa_1" xmlns="http://www.w3.org/2000/svg" xmlns:xlink="http://www.w3.org/1999/xlink" x="0px" y="0px"
	 viewBox="0 0 691 691" style="enable-background:new 0 0 691 691;" xml:space="preserve">
<style type="text/css">
	.st0{fill:#45B6F4;}
	.st1{display:none;fill:#53B0E3;}
	.st2{fill:#00EEAB;}
	.st3{fill:#FF473A;}
	.st4{fill:#FF99E9;}
	.st5{fill:#FFEF00;}
	.st6{fill:none;stroke:#FF99E9;stroke-width:4;stroke-miterlimit:10;}
	.st7{fill:#2465EE;}
	.st8{clip-path:url(#SVGID_2_);fill:none;stroke:#2465EE;stroke-width:4;stroke-miterlimit:10;}
	.st9{fill:#FCE2DE;}
	.st10{fill:#FFFFFF;}
	.st11{fill:#F4C6C1;}
	.st12{fill:#1A1A1A;}
	.st13{fill:#F9D8D4;}
	.st14{fill:#FF3833;}
	.st15{clip-path:url(#SVGID_4_);}
	.st16{clip-path:url(#SVGID_6_);fill:none;stroke:#FFEF00;stroke-width:4;stroke-miterlimit:10;}
	.st17{clip-path:url(#SVGID_4_);fill:#FFEF00;}
	.st18{display:none;fill:#FF99E9;}
	.st19{clip-path:url(#SVGID_8_);fill:none;stroke:#2465EE;stroke-width:4.4474;stroke-miterlimit:10;}
	.st20{clip-path:url(#SVGID_8_);fill:none;stroke:#2465EE;stroke-width:4.9509;stroke-miterlimit:10;}
	.st21{clip-path:url(#SVGID_10_);fill:none;stroke:#FFEF00;stroke-width:4.4584;stroke-miterlimit:10;}
	.st22{clip-path:url(#SVGID_12_);fill:none;stroke:#FFEF00;stroke-width:5.6507;stroke-miterlimit:10;}
	.st23{fill:none;stroke:#00EEAB;stroke-width:5.6507;stroke-miterlimit:10;}
	.st24{clip-path:url(#SVGID_14_);fill:none;stroke:#FFEF00;stroke-width:5.6507;stroke-miterlimit:10;}
	.st25{opacity:0.29;fill:#333333;}
	.st26{display:none;clip-path:url(#SVGID_16_);fill:#FFEF00;}
	.st27{clip-path:url(#SVGID_16_);}
	.st28{clip-path:url(#SVGID_18_);fill:none;stroke:#2465EE;stroke-width:5.5388;stroke-miterlimit:10;}
	.st29{clip-path:url(#SVGID_16_);fill:#2465EE;}
	.st30{clip-path:url(#SVGID_16_);fill:#FF99E9;}
	.st31{clip-path:url(#SVGID_20_);fill:none;stroke:#FFEF00;stroke-width:5.5388;stroke-miterlimit:10;}
</style>
<g>
	<defs>
		<path id="SVGID_11_" d="M628.7,601.6L628.7,601.6L628.7,601.6L628.7,601.6c-0.4,77.6-22.4,138.7-63.6,181
			c-31.2,32-82.4,32.6-114.4,1.4c-32-31.2-32.6-82.4-1.4-114.4C490.6,627.4,551.1,603.9,628.7,601.6z"/>
	</defs>
	<use xlink:href="#SVGID_11_"  style="overflow:visible;fill:#00EEAB;"/>
	<clipPath id="SVGID_2_">
		<use xlink:href="#SVGID_11_"  style="overflow:visible;"/>
	</clipPath>
	<polyline style="clip-path:url(#SVGID_2_);fill:none;stroke:#FFEF00;stroke-width:5.6507;stroke-miterlimit:10;" points="
		544.7,599.9 534,698.6 632.5,685.6 	"/>
	<polyline style="clip-path:url(#SVGID_2_);fill:none;stroke:#FFEF00;stroke-width:5.6507;stroke-miterlimit:10;" points="
		625.7,748.1 484.1,749.8 473.9,612.6 	"/>
	<polyline style="clip-path:url(#SVGID_2_);fill:none;stroke:#FFEF00;stroke-width:5.6507;stroke-miterlimit:10;" points="
		546.8,811 484.1,749.8 421.4,688.6 	"/>
	
		<line style="clip-path:url(#SVGID_2_);fill:none;stroke:#FFEF00;stroke-width:5.6507;stroke-miterlimit:10;" x1="632" y1="598.2" x2="376.6" y2="860"/>
</g>
<line class="st23" x1="445.6" y1="76.4" x2="445.6" y2="671.1"/>
<path class="st4" d="M482.4,76.4c0,20.3-16.4,36.7-36.7,36.7c-20.3,0-36.7-16.4-36.7-36.7"/>
<g>
	<circle class="st5" cx="421.3" cy="63.5" r="8.5"/>
	<circle class="st5" cx="445.7" cy="63.5" r="8.5"/>
	<circle class="st5" cx="470.1" cy="63.5" r="8.5"/>
</g>
<path class="st4" d="M482.4,149.3c0,20.3-16.4,36.7-36.7,36.7c-20.3,0-36.7-16.4-36.7-36.7"/>
<path class="st4" d="M482.4,222.2c0,20.3-16.4,36.7-36.7,36.7c-20.3,0-36.7-16.4-36.7-36.7"/>
<path class="st4" d="M480,297.1c0,18.9-15.3,34.3-34.3,34.3s-34.3-15.3-34.3-34.3"/>
<g>
	<defs>
		<path id="SVGID_13_" d="M122.5,154.9L122.5,154.9L122.5,154.9L122.5,154.9C234.1,210.5,306.6,285.5,338.2,375
			c23.9,67.6-11.5,141.9-79.1,165.8s-141.9-11.5-165.8-79.1C61.6,372.2,70.8,268.3,122.5,154.9z"/>
	</defs>
	<use xlink:href="#SVGID_13_"  style="overflow:visible;fill:#00EEAB;"/>
	<clipPath id="SVGID_4_">
		<use xlink:href="#SVGID_13_"  style="overflow:visible;"/>
	</clipPath>
	<polyline style="clip-path:url(#SVGID_4_);fill:none;stroke:#FFEF00;stroke-width:5.6507;stroke-miterlimit:10;" points="
		60.3,274.7 195.1,360.1 246.2,208.9 	"/>
	<polyline style="clip-path:url(#SVGID_4_);fill:none;stroke:#FFEF00;stroke-width:5.6507;stroke-miterlimit:10;" points="
		331.4,263.1 233.5,468.4 28.5,385.8 	"/>
	<polyline style="clip-path:url(#SVGID_4_);fill:none;stroke:#FFEF00;stroke-width:5.6507;stroke-miterlimit:10;" points="
		366.2,421.4 233.5,468.4 100.8,515.3 	"/>
	
		<line style="clip-path:url(#SVGID_4_);fill:none;stroke:#FFEF00;stroke-width:5.6507;stroke-miterlimit:10;" x1="120" y1="147.7" x2="316" y2="701.6"/>
</g>
<path class="st4" d="M41.6,425.8L41.6,425.8L41.6,425.8L41.6,425.8c122.8,5.1,218.3,43.3,282.8,111c48.8,51.2,46.9,132.3-4.3,181.1
	c-51.2,48.8-132.3,46.9-181.1-4.3C74.5,645.8,40.8,548.7,41.6,425.8z"/>
<path class="st5" d="M644.7,331.3L644.7,331.3L644.7,331.3L644.7,331.3c-6.8,119.6-45.6,212-112.6,273.8
	c-50.6,46.8-129.6,43.6-176.4-7c-46.8-50.6-43.6-129.6,7-176.4C429.7,359.9,525,328.6,644.7,331.3z"/>
<path class="st3" d="M422.3,218.3c0-43.7-35.4-79.1-79.1-79.1c-43.7,0-79.1,35.4-79.1,79.1v661.2h158.2V218.3z"/>
<path class="st11" d="M343.1,147.7l-70.6,70.6c0,0,0,0,0,0c0,39,31.6,70.6,70.6,70.6s70.6-31.6,70.6-70.6L343.1,147.7L343.1,147.7z"
	/>
<rect x="297.9" y="218.3" class="st11" width="90.4" height="158.2"/>
<path class="st11" d="M193.5,546.1c-23.4,0-42.4-19-42.4-42.4c0-23.4,19-42.4,42.4-42.4h68v-84.8h-68c-70.1,0-127.1,57-127.1,127.1
	c0,70.1,57,127.1,127.1,127.1"/>
<path class="st11" d="M492.8,630.8c70.1,0,127.1-57,127.1-127.1c0-70.1-57-127.1-127.1-127.1h-68v84.8h68c23.4,0,42.4,19,42.4,42.4
	c0,23.4-19,42.4-42.4,42.4"/>
<rect x="91.7" y="489.6" transform="matrix(-1.836970e-16 1 -1 -1.836970e-16 971.145 284.8514)" class="st11" width="502.9" height="276.9"/>
<path class="st4" d="M334.7,222.6c0-4.7,3.8-8.5,8.5-8.5h0c4.7,0,8.5,3.8,8.5,8.5H334.7z"/>
<g>
	<circle class="st3" cx="338.9" cy="257.9" r="5.7"/>
	<circle class="st3" cx="347.4" cy="257.9" r="5.7"/>
	<path class="st3" d="M353,257.9c0,5.5-4.4,9.9-9.9,9.9s-9.9-4.4-9.9-9.9"/>
</g>
<path class="st7" d="M297.9,376.5l-93.2,84.8l0,418.1h276.9l0.2-418.1l-93.5-84.8C388.4,376.5,298.4,376.5,297.9,376.5z"/>
<path class="st2" d="M359.9,521.5c-1.1,8.3-8.2,14.7-16.8,14.7c-8.6,0-15.7-6.4-16.8-14.7c-26.2,7.3-45.4,31.4-45.4,59.9
	c0,34.3,27.8,62.2,62.2,62.2s62.2-27.8,62.2-62.2C405.3,552.9,386.1,528.8,359.9,521.5z"/>
<path class="st25" d="M343.1,536.2c8.6,0,15.7-6.4,16.8-14.7c-5.3-1.5-11-2.3-16.8-2.3s-11.5,0.8-16.8,2.3
	C327.5,529.8,334.6,536.2,343.1,536.2z"/>
<path class="st10" d="M343.1,536.2c8.6,0,15.7-6.4,16.8-14.7c-5.3-1.5-11-2.3-16.8-2.3s-11.5,0.8-16.8,2.3
	C327.5,529.8,334.6,536.2,343.1,536.2z"/>
<path class="st11" d="M492.8,546.1H388.4v0c-0.1,0-0.1,0-0.2,0c-7.8,0-14.1,6.3-14.1,14.1c0,7.8,6.3,14.1,14.1,14.1
	c0.1,0,0.1,0,0.2,0v0c-0.1,0-0.1,0-0.2,0c-7.8,0-14.1,6.3-14.1,14.1c0,7.8,6.3,14.1,14.1,14.1c0.1,0,0.1,0,0.2,0v0
	c-0.1,0-0.1,0-0.2,0c-7.8,0-14.1,6.3-14.1,14.1c0,7.8,6.3,14.1,14.1,14.1c0.1,0,0.1,0,0.2,0v0h104.4"/>
<rect x="297.9" y="342.6" class="st7" width="90.4" height="33.9"/>
<rect x="338.9" y="259.3" class="st10" width="8.5" height="268.4"/>
<path class="st11" d="M193.5,630.8h104.4c7.8,0,14.1-6.3,14.1-14.1c0-7.8-6.3-14.1-14.1-14.1c7.8,0,14.1-6.3,14.1-14.1
	c0-7.8-6.3-14.1-14.1-14.1c7.8,0,14.1-6.3,14.1-14.1c0-7.8-6.3-14.1-14.1-14.1H193.5"/>
<g>
	<path class="st5" d="M202.6,760.1c0,0-40-153.1,0-153.1S202.6,760.1,202.6,760.1z"/>
	<path class="st5" d="M202.6,760.1c0,0-110.3-112.3-75.6-132.6C161.6,607.3,202.6,760.1,202.6,760.1z"/>
	<path class="st5" d="M202.6,760.1c0,0-151-41.4-131-76.5S202.6,760.1,202.6,760.1z"/>
	<path class="st5" d="M202.6,760.1c0,0,110.9-111.6,131-76.5S202.6,760.1,202.6,760.1z"/>
	<path class="st5" d="M202.6,760.1c0,0,40.9-152.8,75.6-132.6C312.9,647.8,202.6,760.1,202.6,760.1z"/>
</g>
<path class="st4" d="M503.7,615.8L503.7,615.8L503.7,615.8L503.7,615.8c19.2,46.1,21.5,87.8,7.7,123.1c-10.5,26.8-40.6,40-67.4,29.5
	c-26.8-10.5-40-40.6-29.5-67.4C428.4,665.7,458.3,636.6,503.7,615.8z"/>
<path class="st3" d="M394.6,675.4L394.6,675.4L394.6,675.4L394.6,675.4c29.3,11.6,49.1,28.9,59,50.7c7.5,16.5,0.2,35.9-16.3,43.4
	c-16.5,7.5-35.9,0.2-43.4-16.3C384,731.4,384,705.1,394.6,675.4z"/>
<rect x="338.9" y="408.3" class="st5" width="8.5" height="119.4"/>
<g>
	<g>
		<circle class="st5" cx="267.6" cy="237.4" r="24.7"/>
	</g>
	<circle class="st4" cx="267.6" cy="237.4" r="12.3"/>
</g>
<g>
	<circle class="st2" cx="289.6" cy="265.2" r="19.9"/>
	<circle class="st5" cx="289.6" cy="265.2" r="9.9"/>
</g>
</svg>
