<?xml version="1.0" encoding="utf-8"?>
<!-- Generator: Adobe Illustrator 23.0.3, SVG Export Plug-In . SVG Version: 6.00 Build 0)  -->
<svg version="1.1" id="Capa_1" xmlns="http://www.w3.org/2000/svg" xmlns:xlink="http://www.w3.org/1999/xlink" x="0px" y="0px"
	 viewBox="0 0 692 569.5" style="enable-background:new 0 0 692 569.5;" xml:space="preserve">
<style type="text/css">
	.st0{fill:#45B6F4;}
	.st1{display:none;fill:#53B0E3;}
	.st2{fill:#00EEAB;}
	.st3{fill:#FF473A;}
	.st4{fill:#FF99E9;}
	.st5{fill:#FFEF00;}
	.st6{fill:none;stroke:#FF99E9;stroke-width:4;stroke-miterlimit:10;}
	.st7{fill:#2465EE;}
	.st8{clip-path:url(#SVGID_2_);fill:none;stroke:#2465EE;stroke-width:4;stroke-miterlimit:10;}
	.st9{fill:#FCE2DE;}
	.st10{fill:#FFFFFF;}
	.st11{fill:#F4C6C1;}
	.st12{fill:#1A1A1A;}
	.st13{fill:#F9D8D4;}
	.st14{fill:#FF3833;}
	.st15{clip-path:url(#SVGID_4_);}
	.st16{clip-path:url(#SVGID_6_);fill:none;stroke:#FFEF00;stroke-width:4;stroke-miterlimit:10;}
	.st17{clip-path:url(#SVGID_4_);fill:#FFEF00;}
	.st18{display:none;fill:#FF99E9;}
	.st19{clip-path:url(#SVGID_8_);fill:none;stroke:#2465EE;stroke-width:4.4474;stroke-miterlimit:10;}
	.st20{clip-path:url(#SVGID_8_);fill:none;stroke:#2465EE;stroke-width:4.9509;stroke-miterlimit:10;}
	.st21{clip-path:url(#SVGID_10_);fill:none;stroke:#FFEF00;stroke-width:4.4584;stroke-miterlimit:10;}
	.st22{clip-path:url(#SVGID_12_);fill:none;stroke:#FFEF00;stroke-width:5.6507;stroke-miterlimit:10;}
	.st23{fill:none;stroke:#00EEAB;stroke-width:5.6507;stroke-miterlimit:10;}
	.st24{clip-path:url(#SVGID_14_);fill:none;stroke:#FFEF00;stroke-width:5.6507;stroke-miterlimit:10;}
	.st25{opacity:0.29;fill:#333333;}
	.st26{display:none;clip-path:url(#SVGID_16_);fill:#FFEF00;}
	.st27{clip-path:url(#SVGID_16_);}
	.st28{clip-path:url(#SVGID_18_);fill:none;stroke:#2465EE;stroke-width:5.5388;stroke-miterlimit:10;}
	.st29{clip-path:url(#SVGID_16_);fill:#2465EE;}
	.st30{clip-path:url(#SVGID_16_);fill:#FF99E9;}
	.st31{clip-path:url(#SVGID_20_);fill:none;stroke:#FFEF00;stroke-width:5.5388;stroke-miterlimit:10;}
</style>
<g>
	<defs>
		<rect id="SVGID_15_" x="58.5" width="609.9" height="569.5"/>
	</defs>
	<clipPath id="SVGID_2_">
		<use xlink:href="#SVGID_15_"  style="overflow:visible;"/>
	</clipPath>
	<path style="display:none;clip-path:url(#SVGID_2_);fill:#FFEF00;" d="M713.5,553.5h-376c-39.8,0-72-32.2-72-72v0
		c0-39.8,32.2-72,72-72h376c39.8,0,72,32.2,72,72v0C785.5,521.3,753.3,553.5,713.5,553.5z"/>
	<path style="display:none;clip-path:url(#SVGID_2_);fill:#FFEF00;" d="M257.1,360.9h-49.2c-26.2,0-47.4-21.2-47.4-47.4v0
		c0-26.2,21.2-47.4,47.4-47.4h49.2c26.2,0,47.4,21.2,47.4,47.4v0C304.5,339.7,283.3,360.9,257.1,360.9z"/>
	<path style="display:none;clip-path:url(#SVGID_2_);fill:#FFEF00;" d="M135.9,252.5h-32.8c-17.5,0-31.6-14.2-31.6-31.6v0
		c0-17.5,14.2-31.6,31.6-31.6h32.8c17.5,0,31.6,14.2,31.6,31.6v0C167.5,238.3,153.3,252.5,135.9,252.5z"/>
	<path style="display:none;clip-path:url(#SVGID_2_);fill:#FFEF00;" d="M641.5,410.5h-218c-49.7,0-90-40.3-90-90v0
		c0-49.7,40.3-90,90-90h218c49.7,0,90,40.3,90,90v0C731.5,370.2,691.2,410.5,641.5,410.5z"/>
	<g style="clip-path:url(#SVGID_2_);">
		<g>
			<circle class="st5" cx="281.8" cy="112.9" r="22.9"/>
			<rect x="276.1" y="141.5" class="st3" width="5.7" height="45.9"/>
			<rect x="281.8" y="141.5" class="st4" width="5.7" height="28.7"/>
			<g>
				<rect x="302.6" y="69.2" transform="matrix(0.5 -0.866 0.866 0.5 77.9171 307.7046)" class="st7" width="5.7" height="34.4"/>
				<circle class="st5" cx="281.8" cy="72.7" r="11.5"/>
				<circle class="st7" cx="281.8" cy="72.7" r="5.7"/>
			</g>
			<g>
				<path class="st4" d="M211.8,80.9c-12.8-12.8-17.7-30.4-14.7-47l61.7,61.7C242.3,98.6,224.6,93.7,211.8,80.9z"/>
			</g>
			<g>
				<path class="st3" d="M215.2,118.5c-18.1,0-34-9-43.7-22.8h87.3C249.2,109.4,233.2,118.5,215.2,118.5z"/>
			</g>
		</g>
		<g>
			
				<rect x="530.8" y="127.9" transform="matrix(0.5 -0.866 0.866 0.5 42.7444 649.6525)" class="st11" width="106.3" height="319.9"/>
			<path class="st3" d="M387.8,142l-24.9-14.4c-4-2.3-5.3-7.4-3-11.3l0,0c2.3-4,7.4-5.3,11.3-3l24.9,14.4c4,2.3,5.3,7.4,3,11.3v0
				C396.8,143,391.8,144.3,387.8,142z"/>
			<circle class="st11" cx="445.2" cy="175.2" r="83.1"/>
			<circle class="st4" cx="451.8" cy="70" r="53.2"/>
			<path class="st4" d="M486.8,103.3c39.7,22.9,53.4,73.8,30.4,113.5c-11.5,19.9-29.9,33.2-50.5,38.7L423.7,95
				C444.3,89.4,466.9,91.8,486.8,103.3z"/>
			<path class="st7" d="M407.3,286c0-25.7,20.9-46.5,46.5-46.5c25.7,0,46.5,20.9,46.5,46.5c0,25.7-20.9,46.5-46.5,46.5
				C428.2,332.6,407.3,311.7,407.3,286z M420.6,286c0,18.3,14.9,33.2,33.2,33.2s33.2-14.9,33.2-33.2c0-18.3-14.9-33.2-33.2-33.2
				S420.6,267.7,420.6,286z"/>
			<circle class="st5" cx="453.8" cy="232.9" r="10"/>
			<circle class="st3" cx="451.8" cy="70" r="19.9"/>
		</g>
	</g>
	<g style="clip-path:url(#SVGID_2_);">
		<defs>
			<path id="SVGID_17_" d="M583.8,90.9L583.8,90.9L583.8,90.9L583.8,90.9C656.3,119.3,705.6,162,730.2,216
				c18.6,40.8,0.7,88.9-40.1,107.5c-40.8,18.6-88.9,0.7-107.5-40.1C557.9,229.5,557.9,164.3,583.8,90.9z"/>
		</defs>
		<use xlink:href="#SVGID_17_"  style="overflow:visible;fill:#00EEAB;"/>
		<clipPath id="SVGID_4_">
			<use xlink:href="#SVGID_17_"  style="overflow:visible;"/>
		</clipPath>
		<polyline style="clip-path:url(#SVGID_4_);fill:none;stroke:#2465EE;stroke-width:5.5388;stroke-miterlimit:10;" points="
			551.7,168.8 640.3,214.6 663.8,117.7 		"/>
		<polyline style="clip-path:url(#SVGID_4_);fill:none;stroke:#2465EE;stroke-width:5.5388;stroke-miterlimit:10;" points="
			719.8,146.7 670.1,279.8 538.1,239.7 		"/>
		<polyline style="clip-path:url(#SVGID_4_);fill:none;stroke:#2465EE;stroke-width:5.5388;stroke-miterlimit:10;" points="
			750.1,243.3 670.1,279.8 590.1,316.3 		"/>
		
			<line style="clip-path:url(#SVGID_4_);fill:none;stroke:#2465EE;stroke-width:5.5388;stroke-miterlimit:10;" x1="581.9" y1="86.5" x2="734.3" y2="420.4"/>
	</g>
	<path style="clip-path:url(#SVGID_2_);fill:#2465EE;" d="M551.9,274.5L551.9,274.5L551.9,274.5L551.9,274.5
		c46.6-3.8,84.4,6.1,112,28.7c20.8,17,23.9,47.7,6.9,68.6s-47.7,23.9-68.6,6.9C574.7,356,557.4,320.9,551.9,274.5z"/>
	<path style="clip-path:url(#SVGID_2_);fill:#FF99E9;" d="M537.1,346.4L537.1,346.4L537.1,346.4L537.1,346.4
		c60.6-17.1,113.3-13.7,155.6,9c32,17.2,44,57,26.8,88.9s-57,44-88.9,26.8C588.2,448.4,556.3,406.4,537.1,346.4z"/>
	<g style="clip-path:url(#SVGID_2_);">
		<defs>
			<path id="SVGID_19_" d="M485.7,497L485.7,497L485.7,497L485.7,497c46.8-74.1,104.5-119.5,169.3-135.3
				c49-11.9,98.4,18.1,110.4,67.1c11.9,49-18.1,98.4-67.1,110.4C633.4,555.1,561.3,541.3,485.7,497z"/>
		</defs>
		<use xlink:href="#SVGID_19_"  style="overflow:visible;fill:#00EEAB;"/>
		<clipPath id="SVGID_6_">
			<use xlink:href="#SVGID_19_"  style="overflow:visible;"/>
		</clipPath>
		<polyline style="clip-path:url(#SVGID_6_);fill:none;stroke:#FFEF00;stroke-width:5.5388;stroke-miterlimit:10;" points="
			565.1,549.1 634.4,460.8 532.3,414.3 		"/>
		<polyline style="clip-path:url(#SVGID_6_);fill:none;stroke:#FFEF00;stroke-width:5.5388;stroke-miterlimit:10;" points="
			576.2,358.6 712.9,441.7 640.6,579.2 		"/>
		<polyline style="clip-path:url(#SVGID_6_);fill:none;stroke:#FFEF00;stroke-width:5.5388;stroke-miterlimit:10;" points="
			689.4,345.5 712.9,441.7 736.3,537.9 		"/>
		
			<line style="clip-path:url(#SVGID_6_);fill:none;stroke:#FFEF00;stroke-width:5.5388;stroke-miterlimit:10;" x1="480.5" y1="498.3" x2="881.9" y2="400.5"/>
	</g>
</g>
</svg>
