<?xml version="1.0" encoding="utf-8"?>
<!-- Generator: Adobe Illustrator 23.0.3, SVG Export Plug-In . SVG Version: 6.00 Build 0)  -->
<svg version="1.1" id="Capa_1" xmlns="http://www.w3.org/2000/svg" xmlns:xlink="http://www.w3.org/1999/xlink" x="0px" y="0px"
	 viewBox="0 0 1366 439" style="enable-background:new 0 0 1366 439;" xml:space="preserve">
<style type="text/css">
	.st0{fill:#2465EE;}
	.st1{fill:#FF99E9;}
</style>
<path class="st0" d="M882-101.7c-75.8-10.9-152.7-14.3-229.2-10.2c75.8-10.9,150.6-29.2,222.8-54.7l0,0l0,0
	c-76.5,4.1-152.6,15.8-226.8,34.7c72.2-25.5,142-58.1,207.9-97.2l0,0l0,0c-74.2,18.9-146.6,45.2-215.7,78.3
	c65.9-39.1,128-84.7,184.9-135.8l0,0l0,0c-69.1,33.1-134.9,73-196.3,118.9c57-51.2,109-108,154.9-169.3
	c-61.3,45.9-118.1,97.9-169.3,154.9c45.9-61.3,85.8-127.2,118.9-196.3l0,0l0,0c-51.2,57-96.8,119-135.8,184.9
	c33.1-69.1,59.4-141.5,78.3-215.7l0,0l0,0c-39.1,65.9-71.7,135.6-97.2,207.9c19-74.2,30.6-150.3,34.7-226.8l0,0l0,0
	c-25.5,72.2-43.8,147-54.7,222.9c4.1-76.5,0.7-153.4-10.2-229.2c-10.9,75.8-14.3,152.7-10.2,229.2c-10.9-75.8-29.2-150.6-54.7-222.8
	l0,0l0,0c4.1,76.5,15.8,152.6,34.7,226.8c-25.5-72.2-58.1-142-97.1-207.9l0,0l0,0c18.9,74.2,45.2,146.6,78.3,215.7
	c-39.1-65.9-84.6-128-135.8-184.9l0,0l0,0c33,69.1,73,134.9,118.9,196.3c-51.2-57-108-109-169.3-154.9
	c45.9,61.3,97.9,118.1,154.9,169.3c-61.3-45.9-127.2-85.8-196.3-118.9l0,0l0,0c57,51.2,119,96.8,184.9,135.8
	c-69.1-33.1-141.5-59.4-215.7-78.3l0,0l0,0c65.9,39.1,135.6,71.7,207.9,97.2c-74.2-18.9-150.3-30.6-226.8-34.7l0,0l0,0
	c72.2,25.5,147,43.8,222.9,54.7c-76.5-4.1-153.4-0.7-229.2,10.2l0,0l0,0c75.8,10.9,152.7,14.3,229.2,10.2
	C369.8-80.6,295-62.3,222.8-36.8c76.5-4.1,152.6-15.8,226.8-34.7c-72.3,25.5-142,58.1-207.9,97.2l0,0l0,0
	c74.2-18.9,146.6-45.2,215.7-78.3C391.5-13.6,329.4,32,272.5,83.2c69.1-33,134.9-73,196.3-118.9c-57,51.2-109,108-154.9,169.3l0,0
	l0,0C375.2,87.7,432,35.7,483.1-21.3C437.2,40.1,397.3,105.9,364.3,175l0,0l0,0C415.5,118,461,56,500.1-9.9
	c-33.1,69.1-59.4,141.5-78.3,215.7l0,0l0,0C460.9,139.9,493.5,70.1,519-2.1c-19,74.2-30.6,150.3-34.7,226.8l0,0l0,0
	c25.5-72.2,43.8-147,54.7-222.9c-4.1,76.5-0.7,153.4,10.2,229.2c10.9-75.8,14.3-152.7,10.2-229.2c10.9,75.8,29.2,150.6,54.7,222.9
	l0,0l0,0C610,148.2,598.3,72.1,579.4-2.1c25.5,72.2,58.1,142,97.2,207.9l0,0l0,0c-18.9-74.2-45.2-146.6-78.3-215.7
	C637.3,56,682.9,118,734.1,175l0,0l0,0c-33-69.1-73-134.9-118.9-196.3c51.2,57,108,109,169.3,154.9l0,0l0,0
	C738.6,72.3,686.6,15.5,629.6-35.7c61.3,45.9,127.2,85.8,196.3,118.9c-57-51.2-119-96.8-184.9-135.8C710-19.6,782.4,6.7,856.6,25.7
	l0,0l0,0C790.8-13.4,721-46,648.8-71.5c74.2,19,150.3,30.6,226.8,34.7c-72.2-25.5-147-43.8-222.9-54.7
	C729.2-87.4,806.2-90.8,882-101.7L882-101.7L882-101.7z"/>
<path class="st1" d="M422.9,4.6L422.9,4.6L422.9,4.6c-90.3-13-182-17-273.1-12.1c90.3-13,179.4-34.8,265.5-65.2l0,0l0,0
	C324.1-67.9,233.5-54,145.1-31.4c86.1-30.4,169.2-69.2,247.6-115.7l0,0l0,0c-88.4,22.6-174.6,53.9-256.9,93.3
	c78.5-46.6,152.4-100.8,220.3-161.8l0,0l0,0c-82.3,39.4-160.8,86.9-233.8,141.6c67.9-61,129.8-128.6,184.5-201.7l0,0l0,0
	c-73.1,54.7-140.7,116.6-201.7,184.5c54.7-73.1,102.2-151.5,141.6-233.8l0,0l0,0c-61,67.9-115.2,141.8-161.8,220.3
	c39.4-82.3,70.7-168.5,93.3-256.9l0,0l0,0c-46.6,78.5-85.4,161.6-115.7,247.6c22.6-88.4,36.5-179.1,41.4-270.2l0,0l0,0
	c-30.3,86-52.2,175.1-65.2,265.5c4.9-91.1,0.8-182.8-12.1-273.1c-13,90.3-17,182-12.2,273.1c-13-90.3-34.8-179.4-65.2-265.5l0,0l0,0
	c4.9,91.1,18.8,181.8,41.4,270.2c-30.4-86.1-69.2-169.2-115.7-247.6l0,0l0,0c22.6,88.4,53.9,174.6,93.3,256.9
	c-46.6-78.5-100.8-152.4-161.8-220.3l0,0l0,0c39.4,82.3,86.9,160.8,141.6,233.8c-61-67.9-128.6-129.8-201.7-184.5l0,0l0,0
	c54.7,73.1,116.6,140.7,184.5,201.7c-73.1-54.7-151.5-102.2-233.8-141.6l0,0l0,0c67.9,61,141.8,115.2,220.3,161.8
	c-82.3-39.4-168.5-70.7-256.9-93.3l0,0l0,0c78.5,46.6,161.6,85.4,247.6,115.7C-180.6-54-271.3-67.9-362.4-72.8l0,0l0,0
	c86,30.4,175.1,52.2,265.5,65.2C-188.1-12.5-279.7-8.4-370,4.6l0,0l0,0c90.3,13,181.9,17,273.1,12.1c-90.3,13-179.4,34.8-265.5,65.2
	l0,0l0,0c91.1-4.9,181.8-18.8,270.2-41.4c-86.1,30.4-169.2,69.2-247.6,115.7l0,0l0,0c88.4-22.6,174.6-53.9,256.9-93.3
	c-78.5,46.6-152.4,100.8-220.3,161.8l0,0l0,0c82.3-39.4,160.8-86.9,233.8-141.6c-67.9,61-129.8,128.6-184.5,201.7
	c73.1-54.7,140.7-116.6,201.7-184.5c-54.7,73.1-102.2,151.5-141.6,233.8l0,0l0,0c61-67.9,115.2-141.8,161.8-220.3
	c-39.4,82.3-70.7,168.5-93.3,256.9c46.6-78.5,85.4-161.6,115.7-247.6C-32.1,211.6-46,302.3-50.9,393.4l0,0l0,0
	c30.4-86,52.2-175.1,65.2-265.5C9.4,219.1,13.4,310.7,26.4,401c13-90.3,17-181.9,12.1-273.1c13,90.3,34.8,179.4,65.2,265.5l0,0l0,0
	C98.9,302.3,85,211.6,62.4,123.2c30.4,86.1,69.2,169.2,115.7,247.6c-22.6-88.4-53.9-174.6-93.3-256.9
	c46.6,78.5,100.8,152.4,161.8,220.3l0,0l0,0c-39.4-82.3-86.9-160.8-141.6-233.8c61,67.9,128.6,129.8,201.7,184.5
	c-54.7-73.1-116.6-140.7-184.5-201.7c73.1,54.7,151.5,102.2,233.8,141.6l0,0l0,0c-67.9-61-141.8-115.2-220.3-161.8
	c82.3,39.4,168.5,70.7,256.9,93.3l0,0l0,0c-78.5-46.6-161.6-85.4-247.7-115.7C233.5,63.1,324.1,77,415.3,81.9l0,0l0,0
	c-86-30.4-175.1-52.2-265.5-65.2C240.9,21.6,332.6,17.5,422.9,4.6z"/>
</svg>
