<?xml version="1.0" encoding="utf-8"?>
<!-- Generator: Adobe Illustrator 23.0.3, SVG Export Plug-In . SVG Version: 6.00 Build 0)  -->
<svg version="1.1" id="Capa_1" xmlns="http://www.w3.org/2000/svg" xmlns:xlink="http://www.w3.org/1999/xlink" x="0px" y="0px"
	 viewBox="0 0 1366 582.4" style="enable-background:new 0 0 1366 582.4;" xml:space="preserve">
<style type="text/css">
	.st0{fill:#FCE2DE;}
	.st1{fill:#FF473A;}
	.st2{fill:#FFFFFF;}
	.st3{fill:#2465EE;}
	.st4{fill:#FF99E9;}
</style>
<g>
	<g>
		<g>
			<path class="st0" d="M1270.2,302.1c19.3,0,34.9-15.6,34.9-34.9c0-19.3-15.6-34.9-34.9-34.9h-87.3v69.8L1270.2,302.1L1270.2,302.1
				z"/>
			<path class="st0" d="M973.4,302.1h87.3v-69.8h-87.3c-19.3,0-34.9,15.6-34.9,34.9S954.2,302.1,973.4,302.1z"/>
		</g>
		
			<ellipse transform="matrix(0.7071 -0.7071 0.7071 0.7071 148.9005 867.6695)" class="st1" cx="1121.8" cy="254.1" rx="130.9" ry="130.9"/>
		<path class="st0" d="M1078.2,315.2c17.1,0,32.6-7,43.6-18.4c11.1,11.3,26.5,18.4,43.6,18.4c33.8,0,61.1-27.4,61.1-61.1
			c0-33.8-27.4-61.1-61.1-61.1c-17.1,0-32.6,7-43.6,18.4c-11.1-11.3-26.5-18.4-43.6-18.4c-33.8,0-61.1,27.4-61.1,61.1
			C1017.1,287.8,1044.4,315.2,1078.2,315.2z"/>
		<circle class="st2" cx="1121.8" cy="193" r="43.6"/>
		<circle class="st1" cx="1134.9" cy="206.1" r="4.4"/>
		<circle class="st1" cx="1108.7" cy="206.1" r="4.4"/>
		<circle class="st2" cx="1165.5" cy="254.1" r="21.8"/>
		<circle cx="1165.5" cy="254.1" r="13.6"/>
		<circle class="st2" cx="1078.2" cy="254.1" r="21.8"/>
		<circle cx="1078.2" cy="254.1" r="13.6"/>
		<g>
			<rect x="1113.1" y="380.7" class="st1" width="17.5" height="21.8"/>
		</g>
	</g>
</g>
<path class="st3" d="M882,75.8c-75.8-10.9-152.7-14.3-229.2-10.2c75.8-10.9,150.6-29.2,222.8-54.7l0,0l0,0
	C799.1,14.9,723,26.6,648.7,45.6c72.2-25.5,142-58.1,207.9-97.2l0,0l0,0C782.4-32.6,710-6.3,640.9,26.7
	c65.9-39.1,128-84.7,184.9-135.8l0,0l0,0c-69.1,33.1-134.9,73-196.3,118.9c57-51.2,109-108,154.9-169.3
	C723.2-113.6,666.4-61.7,615.2-4.7C661.1-66,701-131.8,734.1-200.9l0,0l0,0c-51.2,57-96.8,119-135.8,184.9
	c33.1-69.1,59.4-141.5,78.3-215.7l0,0l0,0C637.4-165.8,604.9-96,579.4-23.8c19-74.2,30.6-150.3,34.7-226.8l0,0l0,0
	c-25.5,72.2-43.8,147-54.7,222.9c4.1-76.5,0.7-153.4-10.2-229.2c-10.9,75.8-14.3,152.7-10.2,229.2c-10.9-75.8-29.2-150.6-54.7-222.8
	l0,0l0,0C488.3-174.1,500-98,519-23.8c-25.5-72.2-58.1-142-97.1-207.9l0,0l0,0C440.7-157.5,467-85.1,500.1-16
	c-39.1-65.9-84.6-128-135.8-184.9l0,0l0,0c33,69.1,73,134.9,118.9,196.3c-51.2-57-108-109-169.3-154.9
	C359.7-98.2,411.7-41.4,468.7,9.8c-61.3-45.9-127.2-85.8-196.3-118.9l0,0l0,0c57,51.2,119,96.8,184.9,135.8
	C388.3-6.3,315.9-32.6,241.7-51.6l0,0l0,0c65.9,39.1,135.6,71.7,207.9,97.2c-74.2-18.9-150.3-30.6-226.8-34.7l0,0l0,0
	c72.2,25.5,147,43.8,222.9,54.7c-76.5-4.1-153.4-0.7-229.2,10.2l0,0l0,0C292.2,86.7,369.1,90.1,445.6,86
	c-75.8,10.9-150.6,29.2-222.8,54.7c76.5-4.1,152.6-15.8,226.8-34.7c-72.3,25.5-142,58.1-207.9,97.2l0,0l0,0
	c74.2-18.9,146.6-45.2,215.7-78.3c-65.9,39.1-128,84.6-184.9,135.8c69.1-33.1,134.9-73,196.3-118.9c-57,51.2-109,108-154.9,169.3
	l0,0l0,0c61.3-45.9,118.1-97.9,169.3-154.9c-45.9,61.3-85.8,127.2-118.9,196.3l0,0l0,0c51.2-57,96.8-119,135.8-184.9
	C467,236.7,440.7,309,421.8,383.3l0,0l0,0c39.1-65.9,71.7-135.6,97.2-207.9c-19,74.2-30.6,150.3-34.7,226.8l0,0l0,0
	c25.5-72.2,43.8-147,54.7-222.9c-4.1,76.5-0.7,153.4,10.2,229.2c10.9-75.8,14.3-152.7,10.2-229.2c10.9,75.8,29.2,150.6,54.7,222.9
	l0,0l0,0c-4.1-76.5-15.8-152.6-34.7-226.8c25.5,72.2,58.1,142,97.2,207.9l0,0l0,0c-18.9-74.2-45.2-146.6-78.3-215.7
	c39.1,65.9,84.7,128,135.8,184.9l0,0l0,0c-33-69.1-73-134.9-118.9-196.3c51.2,57,108,109,169.3,154.9l0,0l0,0
	c-45.9-61.3-97.9-118.1-154.9-169.3c61.3,45.9,127.2,85.8,196.3,118.9c-57-51.2-119-96.8-184.9-135.8
	c69.1,33.1,141.5,59.4,215.7,78.3l0,0l0,0C790.8,164.1,721,131.5,648.8,106c74.2,19,150.3,30.6,226.8,34.7
	c-72.2-25.5-147-43.8-222.9-54.7C729.2,90.1,806.2,86.7,882,75.8L882,75.8L882,75.8z"/>
<path class="st4" d="M422.9,182L422.9,182L422.9,182c-90.3-13-182-17-273.1-12.2c90.3-13,179.4-34.8,265.5-65.2l0,0l0,0
	c-91.1,4.9-181.8,18.8-270.2,41.4c86.1-30.4,169.2-69.2,247.6-115.7l0,0l0,0c-88.4,22.6-174.6,53.9-256.9,93.3
	C214.2,77.1,288.2,22.8,356.1-38.2l0,0l0,0C273.8,1.2,195.3,48.7,122.3,103.4c67.9-61,129.8-128.6,184.5-201.7l0,0l0,0
	C233.7-43.6,166.1,18.3,105.1,86.2c54.7-73.1,102.2-151.5,141.6-233.8l0,0l0,0C185.7-79.7,131.4-5.8,84.9,72.7
	c39.4-82.3,70.7-168.5,93.3-256.9l0,0l0,0C131.6-105.7,92.8-22.6,62.4,63.4C85-25,98.9-115.7,103.8-206.8l0,0l0,0
	c-30.3,86-52.2,175.1-65.2,265.5c4.9-91.1,0.8-182.8-12.1-273.1c-13,90.3-17,182-12.2,273.1c-13-90.3-34.8-179.4-65.2-265.5l0,0l0,0
	C-46-115.7-32.1-25-9.5,63.4c-30.4-86.1-69.2-169.2-115.7-247.6l0,0l0,0C-102.7-95.8-71.4-9.6-32,72.7
	C-78.6-5.8-132.8-79.7-193.8-147.6l0,0l0,0c39.4,82.3,86.9,160.8,141.6,233.8c-61-67.9-128.6-129.8-201.7-184.5l0,0l0,0
	c54.7,73.1,116.6,140.7,184.5,201.7C-142.4,48.7-220.9,1.2-303.2-38.2l0,0l0,0c67.9,61,141.8,115.2,220.3,161.8
	c-82.3-39.4-168.5-70.7-256.9-93.3l0,0l0,0c78.5,46.6,161.6,85.4,247.6,115.7c-88.4-22.6-179.1-36.5-270.2-41.4l0,0l0,0
	c86,30.4,175.1,52.2,265.5,65.2c-91.1-4.9-182.8-0.8-273.1,12.1l0,0l0,0c90.3,13,181.9,17,273.1,12.1
	c-90.3,13-179.4,34.8-265.5,65.2l0,0l0,0c91.1-4.9,181.8-18.8,270.2-41.4c-86.1,30.4-169.2,69.2-247.6,115.7l0,0l0,0
	c88.4-22.6,174.6-53.9,256.9-93.3c-78.5,46.6-152.4,100.8-220.3,161.8l0,0l0,0c82.3-39.4,160.8-86.9,233.8-141.6
	c-67.9,61-129.8,128.6-184.5,201.7c73.1-54.7,140.7-116.6,201.7-184.5c-54.7,73.1-102.2,151.5-141.6,233.8l0,0l0,0
	c61-67.9,115.2-141.8,161.8-220.3c-39.4,82.3-70.7,168.5-93.3,256.9c46.6-78.5,85.4-161.6,115.7-247.6
	C-32.1,389.1-46,479.8-50.9,570.9l0,0l0,0c30.4-86,52.2-175.1,65.2-265.5c-4.9,91.1-0.8,182.8,12.1,273.1c13-90.3,17-182,12.1-273.1
	c13,90.3,34.8,179.4,65.2,265.5l0,0l0,0C98.9,479.8,85,389.1,62.4,300.7c30.4,86.1,69.2,169.2,115.7,247.6
	c-22.6-88.4-53.9-174.6-93.3-256.9c46.6,78.5,100.8,152.4,161.8,220.3l0,0l0,0c-39.4-82.3-86.9-160.8-141.6-233.8
	c61,67.9,128.6,129.8,201.7,184.5c-54.7-73.1-116.6-140.7-184.5-201.7c73.1,54.7,151.5,102.2,233.8,141.6l0,0l0,0
	c-67.9-61-141.8-115.2-220.3-161.8c82.3,39.4,168.5,70.7,256.9,93.3l0,0l0,0c-78.5-46.6-161.6-85.4-247.7-115.7
	c88.4,22.6,179.1,36.5,270.2,41.4l0,0l0,0c-86-30.4-175.1-52.2-265.5-65.2C240.9,199.1,332.6,195,422.9,182z"/>
</svg>
