<?xml version="1.0" encoding="utf-8"?>
<!-- Generator: Adobe Illustrator 23.0.3, SVG Export Plug-In . SVG Version: 6.00 Build 0)  -->
<svg version="1.1" id="Capa_1" xmlns="http://www.w3.org/2000/svg" xmlns:xlink="http://www.w3.org/1999/xlink" x="0px" y="0px"
	 viewBox="0 0 1366 734.9" style="enable-background:new 0 0 1366 734.9;" xml:space="preserve">
<style type="text/css">
	.st0{fill:#2465EE;}
	.st1{fill:#FF99E9;}
</style>
<path class="st0" d="M708.2-71c-66.1-9.5-133.2-12.5-199.9-8.9c66.1-9.5,131.4-25.5,194.4-47.7l0,0l0,0
	c-66.7,3.6-133.1,13.8-197.8,30.3c63-22.2,123.9-50.6,181.3-84.7l0,0l0,0c-64.7,16.5-127.9,39.4-188.1,68.3
	c57.5-34.1,111.6-73.8,161.3-118.5l0,0l0,0c-60.3,28.8-117.7,63.6-171.2,103.7c49.7-44.6,95.1-94.2,135.1-147.7
	c-53.5,40-103,85.4-147.7,135.1c40.1-53.5,74.9-110.9,103.7-171.2l0,0l0,0c-44.6,49.7-84.4,103.8-118.5,161.3
	c28.8-60.3,51.8-123.4,68.3-188.1l0,0l0,0c-34.1,57.5-62.5,118.3-84.7,181.3c16.5-64.7,26.7-131.1,30.3-197.8l0,0l0,0
	c-22.2,63-38.2,128.2-47.7,194.4c3.6-66.7,0.6-133.8-8.9-199.9c-9.5,66.1-12.5,133.2-8.9,199.9c-9.5-66.1-25.5-131.4-47.7-194.4l0,0
	l0,0c3.6,66.7,13.8,133.1,30.3,197.8c-22.2-63-50.6-123.9-84.7-181.3l0,0l0,0c16.5,64.7,39.4,127.9,68.3,188.1
	c-34.1-57.5-73.8-111.6-118.5-161.3l0,0l0,0c28.8,60.3,63.6,117.7,103.7,171.2c-44.6-49.7-94.2-95.1-147.7-135.1
	c40,53.5,85.4,103,135.1,147.7c-53.5-40.1-110.9-74.9-171.2-103.7l0,0l0,0c49.7,44.6,103.8,84.4,161.3,118.5
	c-60.3-28.8-123.4-51.8-188.1-68.3l0,0l0,0c57.5,34.1,118.3,62.5,181.3,84.7c-64.7-16.5-131.1-26.7-197.8-30.3l0,0l0,0
	c63,22.2,128.2,38.2,194.4,47.7c-66.7-3.6-133.8-0.6-199.9,8.9l0,0l0,0c66.1,9.5,133.2,12.5,199.9,8.9
	c-66.1,9.5-131.4,25.5-194.4,47.7c66.7-3.6,133.1-13.8,197.8-30.3C268.1-22.4,207.2,6,149.8,40.1l0,0l0,0
	c64.7-16.5,127.9-39.4,188.1-68.3C280.4,5.9,226.3,45.6,176.6,90.3c60.3-28.8,117.7-63.6,171.2-103.7
	c-49.7,44.6-95.1,94.2-135.1,147.7l0,0l0,0c53.5-40,103-85.4,147.7-135.1c-40.1,53.5-74.9,110.9-103.7,171.2l0,0l0,0
	C301.3,120.6,341.1,66.5,375.2,9c-28.8,60.3-51.8,123.4-68.3,188.1l0,0l0,0c34.1-57.5,62.5-118.3,84.7-181.3
	c-16.5,64.7-26.7,131.1-30.3,197.8l0,0l0,0c22.2-63,38.2-128.2,47.7-194.4c-3.6,66.7-0.6,133.8,8.9,199.9
	c9.5-66.1,12.5-133.2,8.9-199.9c9.5,66.1,25.5,131.4,47.7,194.4l0,0l0,0C471,147,460.8,80.6,444.3,15.8
	c22.2,63,50.6,123.9,84.7,181.3l0,0l0,0C512.5,132.4,489.6,69.3,460.7,9c34.1,57.5,73.8,111.6,118.5,161.3l0,0l0,0
	C550.4,110.1,515.6,52.6,475.5-0.9c44.6,49.7,94.2,95.1,147.7,135.1l0,0l0,0c-40-53.5-85.4-103-135.1-147.7
	C541.6,26.6,599,61.4,659.3,90.3C609.6,45.6,555.5,5.9,498-28.2c60.3,28.8,123.4,51.8,188.1,68.3l0,0l0,0
	C628.7,6,567.8-22.4,504.8-44.7c64.7,16.5,131.1,26.7,197.8,30.3c-63-22.2-128.2-38.2-194.4-47.7C575-58.5,642.1-61.5,708.2-71
	L708.2-71L708.2-71z"/>
<path class="st1" d="M260.9,21.7L260.9,21.7L260.9,21.7C182.1,10.3,102.2,6.8,22.7,11.1c78.8-11.3,156.5-30.4,231.5-56.9l0,0l0,0
	C174.8-41.5,95.7-29.4,18.6-9.7c75.1-26.5,147.5-60.3,216-100.9l0,0l0,0C157.5-91,82.3-63.6,10.5-29.3
	c68.5-40.6,132.9-88,192.1-141.1l0,0l0,0C130.8-136.1,62.4-94.6-1.3-46.9c59.2-53.2,113.2-112.2,160.9-175.9l0,0l0,0
	C95.9-175.1,36.9-121.1-16.3-61.9C31.4-125.6,72.9-194,107.2-265.8l0,0l0,0C54-206.6,6.7-142.1-33.9-73.7
	c34.4-71.8,61.7-147,81.4-224.1l0,0l0,0C6.8-229.3-27-156.9-53.5-81.8c19.7-77.1,31.8-156.2,36.1-235.7l0,0l0,0
	c-26.5,75-45.5,152.7-56.8,231.5c4.3-79.5,0.7-159.4-10.6-238.2c-11.3,78.8-14.9,158.7-10.6,238.2c-11.3-78.8-30.4-156.5-56.9-231.5
	l0,0l0,0c4.3,79.5,16.4,158.5,36.1,235.7c-26.5-75.1-60.3-147.5-100.9-216l0,0l0,0c19.7,77.1,47,152.3,81.4,224.1
	c-40.6-68.5-88-132.9-141.1-192.1l0,0l0,0c34.3,71.8,75.8,140.2,123.5,203.9c-53.2-59.2-112.2-113.2-175.9-160.9l0,0l0,0
	c47.7,63.7,101.7,122.7,160.9,175.9c-63.7-47.7-132.1-89.2-203.9-123.5l0,0l0,0c59.2,53.2,123.7,100.5,192.1,141.1
	c-71.8-34.4-147-61.7-224.1-81.4l0,0l0,0c68.4,40.6,140.9,74.5,216,100.9C-265.5-29.4-344.5-41.5-424-45.8l0,0l0,0
	c75.1,26.5,152.7,45.5,231.5,56.9c-79.5-4.3-159.4-0.7-238.2,10.6l0,0l0,0C-351.9,33-272,36.5-192.5,32.3
	C-271.3,43.6-349,62.6-424,89.1l0,0l0,0c79.5-4.3,158.5-16.4,235.7-36.1c-75.1,26.5-147.5,60.3-216,100.9l0,0l0,0
	c77.1-19.7,152.3-47,224.1-81.4c-68.5,40.6-132.9,88-192.1,141.1l0,0l0,0c71.8-34.3,140.2-75.8,203.9-123.5
	c-59.2,53.2-113.2,112.2-160.9,175.9c63.7-47.7,122.7-101.7,175.9-160.9C-201.2,169-242.6,237.4-277,309.2l0,0l0,0
	C-223.8,250-176.4,185.5-135.8,117c-34.4,71.8-61.7,147-81.4,224.1c40.6-68.4,74.4-140.9,100.9-216
	c-19.7,77.1-31.8,156.2-36.1,235.7l0,0l0,0c26.5-75.1,45.5-152.7,56.9-231.5c-4.3,79.5-0.7,159.4,10.6,238.2
	c11.3-78.8,14.9-158.7,10.6-238.2c11.3,78.8,30.4,156.5,56.9,231.5l0,0l0,0c-4.2-79.5-16.4-158.5-36.1-235.7
	c26.5,75.1,60.3,147.5,100.9,216C27.8,264,0.4,188.8-33.9,117C6.7,185.5,54,250,107.2,309.2l0,0l0,0C72.9,237.4,31.4,169-16.3,105.2
	c53.2,59.2,112.2,113.2,175.9,160.9C111.9,202.5,57.9,143.4-1.3,90.3c63.7,47.7,132.1,89.2,203.9,123.5l0,0l0,0
	C143.4,160.6,78.9,113.3,10.5,72.6c71.8,34.4,147,61.7,224.1,81.4l0,0l0,0c-68.4-40.6-140.9-74.5-216-100.9
	c77.1,19.7,156.2,31.8,235.7,36.1l0,0l0,0c-75-26.5-152.7-45.5-231.5-56.9C102.2,36.5,182.1,33,260.9,21.7z"/>
</svg>
