<?xml version="1.0" encoding="utf-8"?>
<!-- Generator: Adobe Illustrator 23.0.3, SVG Export Plug-In . SVG Version: 6.00 Build 0)  -->
<svg version="1.1" id="Capa_1" xmlns="http://www.w3.org/2000/svg" xmlns:xlink="http://www.w3.org/1999/xlink" x="0px" y="0px"
	 viewBox="0 0 690 690" style="enable-background:new 0 0 690 690;" xml:space="preserve">
<style type="text/css">
	.st0{fill:#00EEAB;}
	.st1{fill:#2465EE;}
	.st2{fill:#FFEF00;}
	.st3{fill:#45B6F4;}
	.st4{display:none;clip-path:url(#SVGID_2_);fill:#FFEF00;}
	.st5{clip-path:url(#SVGID_2_);}
	.st6{fill:#FF473A;}
	.st7{fill:#FF99E9;}
	.st8{fill:#F4C6C1;}
	.st9{clip-path:url(#SVGID_4_);fill:none;stroke:#2465EE;stroke-width:3.2258;stroke-miterlimit:10;}
	.st10{clip-path:url(#SVGID_6_);fill:none;stroke:#FFEF00;stroke-width:2.5382;stroke-miterlimit:10;}
	.st11{display:none;fill:#53B0E3;}
	.st12{fill:none;stroke:#FF99E9;stroke-width:4;stroke-miterlimit:10;}
	.st13{clip-path:url(#SVGID_8_);fill:none;stroke:#2465EE;stroke-width:4;stroke-miterlimit:10;}
	.st14{fill:#FCE2DE;}
	.st15{fill:#FFFFFF;}
	.st16{fill:#1A1A1A;}
	.st17{fill:#F9D8D4;}
	.st18{fill:#FF3833;}
	.st19{clip-path:url(#SVGID_10_);}
	.st20{clip-path:url(#SVGID_12_);fill:none;stroke:#FFEF00;stroke-width:4;stroke-miterlimit:10;}
	.st21{clip-path:url(#SVGID_10_);fill:#FFEF00;}
	.st22{display:none;fill:#FF99E9;}
	.st23{clip-path:url(#SVGID_14_);fill:none;stroke:#2465EE;stroke-width:4.4474;stroke-miterlimit:10;}
	.st24{clip-path:url(#SVGID_14_);fill:none;stroke:#2465EE;stroke-width:4.9509;stroke-miterlimit:10;}
	.st25{clip-path:url(#SVGID_16_);fill:none;stroke:#FFEF00;stroke-width:4.4584;stroke-miterlimit:10;}
	.st26{clip-path:url(#SVGID_18_);fill:none;stroke:#FFEF00;stroke-width:5.6507;stroke-miterlimit:10;}
	.st27{fill:none;stroke:#00EEAB;stroke-width:5.6507;stroke-miterlimit:10;}
	.st28{clip-path:url(#SVGID_20_);fill:none;stroke:#FFEF00;stroke-width:5.6507;stroke-miterlimit:10;}
	.st29{opacity:0.29;fill:#333333;}
	.st30{clip-path:url(#SVGID_22_);fill:none;stroke:#FFEF00;stroke-width:5.6507;stroke-miterlimit:10;}
	.st31{clip-path:url(#SVGID_24_);fill:none;stroke:#FFEF00;stroke-width:5.6507;stroke-miterlimit:10;}
	.st32{fill:none;stroke:#00EEAB;stroke-width:4;stroke-miterlimit:10;}
	.st33{fill:none;stroke:#FFEF00;stroke-width:2.8877;stroke-miterlimit:10;}
	.st34{fill:none;stroke:#2465EE;stroke-width:3.2258;stroke-miterlimit:10;}
	.st35{fill:none;stroke:#00EEAB;stroke-width:2.8877;stroke-miterlimit:10;}
</style>
<g>
	<path class="st0" d="M154.2,561c5.8,8.1,12.4,15.5,19.6,22.1c5.8,5.3,12.3,9.3,19.2,12l34.2-37L154.2,561z"/>
	<path class="st0" d="M230.7,550l1.7-73.5c-13.7-8.3-29.1-14.7-46.1-19.1l9.7,60.6L230.7,550z"/>
	<path class="st0" d="M119.4,453.8c1.4,21,4.9,40.3,10.4,57.7l57,4.6L119.4,453.8z"/>
	<path class="st0" d="M181.1,456c-17.8-4.1-37.3-6.1-58.4-5.9l67.4,62.3L181.1,456z"/>
	<path class="st0" d="M198.1,596.9c20.6,5.9,43.5,0.7,59.5-15.3L233.1,559L198.1,596.9z"/>
	<path class="st0" d="M256,494.2c-5.8-5.4-12.1-10.3-18.7-14.7l-1.6,69.5l28.1-30.4l0.5-15C261.8,500.2,259.1,497.1,256,494.2z"/>
	<path class="st0" d="M236.5,555.3l24.5,22.6c0.3-0.4,0.7-0.8,1-1.3l1.6-50.6L236.5,555.3z"/>
	<path class="st1" d="M263.5,526.1l0.2-7.5L235.6,549l1.6-69.5c-1.6-1.1-3.2-2.1-4.9-3.1l-1.7,73.5L196,517.9l-9.7-60.6
		c-1.7-0.4-3.4-0.9-5.2-1.3l9,56.4l-67.4-62.3c-1.2,0-2.4,0-3.6,0h0l0,0c0.1,1.2,0.2,2.4,0.2,3.6l67.4,62.3l-57-4.6
		c0.5,1.7,1.1,3.4,1.7,5.1l61.1,4.9l34.3,31.7l-76.1,3c1.1,1.6,2.2,3.2,3.3,4.8l73-2.9l-34.2,37c1.7,0.7,3.4,1.2,5.1,1.7l35.1-37.9
		l24.5,22.6c0.6-0.6,1.2-1.2,1.7-1.8c0.6-0.6,1.1-1.2,1.6-1.9l-24.5-22.6L263.5,526.1z"/>
	<path class="st0" d="M192.6,521.5l-61.1-4.9c5,14.6,11.5,27.8,19.4,39.6l76.1-3L192.6,521.5z"/>
</g>
<path class="st2" d="M232.5,584.5c-25-7.8-53.5-4.1-84.2,11.4l0,0v0c12.1,22,26.7,38.1,43.5,48.2h55.4c4-4,7.1-9,8.9-14.8
	C262,610.4,251.4,590.4,232.5,584.5z"/>
<rect x="-56" y="-57" class="st11" width="2325" height="800"/>
<path class="st22" d="M298.3,320h-158c-28.7,0-52-23.3-52-52v0c0-28.7,23.3-52,52-52h158c28.7,0,52,23.3,52,52v0
	C350.3,296.7,327,320,298.3,320z"/>
<path class="st22" d="M504.1,644h-376c-39.8,0-72-32.2-72-72v0c0-39.8,32.2-72,72-72h376c39.8,0,72,32.2,72,72v0
	C576.1,611.8,543.9,644,504.1,644z"/>
<path class="st22" d="M554.1,500h-218c-49.7,0-90-40.3-90-90v0c0-49.7,40.3-90,90-90h218c49.7,0,90,40.3,90,90v0
	C644.1,459.7,603.8,500,554.1,500z"/>
<g>
	<path class="st2" d="M200.5,321.7c0,0-128.6-41.4-75-87.4S200.5,321.7,200.5,321.7z"/>
	<path class="st2" d="M190.1,351.4c0,0-100.1,90.7-113.2,21.2S190.1,351.4,190.1,351.4z"/>
	<path class="st2" d="M231.4,315.9c0,0-28.5-132.1,38.2-108.6S231.4,315.9,231.4,315.9z"/>
	
		<rect x="212.3" y="201.3" transform="matrix(0.7579 -0.6523 0.6523 0.7579 -168.4054 221.7482)" class="st7" width="4.5" height="273"/>
	<polygon class="st7" points="77.4,374.8 76.5,370.4 219.3,343.6 267.5,206.6 271.7,208 222.7,347.5 	"/>
</g>
<rect x="200.8" y="170.1" class="st0" width="4.5" height="305.8"/>
<g>
	<path class="st0" d="M203.1,198.3L203.1,198.3L203.1,198.3c0,0-13.1,1.2-17.3,0c-5.1-1.5-5.6-8.9-2.6-13.3l0,0
		c2.9-4.4,9.9-6.7,13.3-2.6C199.2,185.7,203.1,198.3,203.1,198.3z"/>
	<path class="st0" d="M202.9,198.3L202.9,198.3L202.9,198.3c0,0,13.1,1.2,17.3,0c5.1-1.5,5.6-8.9,2.6-13.3v0
		c-2.9-4.4-9.9-6.7-13.3-2.6C206.8,185.7,202.9,198.3,202.9,198.3z"/>
</g>
<circle class="st1" cx="203" cy="170.7" r="9.6"/>
<path class="st2" d="M578,444.1L578,444.1L578,444.1L578,444.1c-63.1-3.9-114,10.6-150.6,41.9c-27.7,23.6-31,65.2-7.4,92.9
	c23.6,27.7,65.2,31,92.9,7.4C549.5,555,571.9,507,578,444.1z"/>
<g>
	<g>
		<g>
			<path class="st14" d="M376.6,228.1c-5.3,0-9.6,4.3-9.6,9.6c0,5.3,4.3,9.6,9.6,9.6h23.9v-19.2H376.6z"/>
			<path class="st14" d="M458,228.1H434v19.2H458c5.3,0,9.6-4.3,9.6-9.6C467.5,232.4,463.3,228.1,458,228.1z"/>
		</g>
		<circle class="st6" cx="417.3" cy="241.3" r="35.9"/>
		<path class="st14" d="M429.2,224.5c-4.7,0-8.9,1.9-12,5c-3-3.1-7.3-5-12-5c-9.3,0-16.8,7.5-16.8,16.8c0,9.3,7.5,16.8,16.8,16.8
			c4.7,0,8.9-1.9,12-5c3,3.1,7.3,5,12,5c9.3,0,16.8-7.5,16.8-16.8C446,232,438.5,224.5,429.2,224.5z"/>
		<circle class="st15" cx="417.3" cy="258.1" r="12"/>
		<circle class="st6" cx="413.7" cy="254.5" r="1.2"/>
		<circle class="st6" cx="420.9" cy="254.5" r="1.2"/>
		<circle class="st15" cx="405.3" cy="241.3" r="6"/>
		<circle cx="405.3" cy="241.3" r="3.7"/>
		<circle class="st15" cx="429.2" cy="241.3" r="6"/>
		<circle cx="429.2" cy="241.3" r="3.7"/>
		<g>
			<rect x="414.9" y="200.6" class="st6" width="4.8" height="7.2"/>
		</g>
	</g>
	
		<rect x="167.4" y="331.1" transform="matrix(-1.836970e-16 1 -1 -1.836970e-16 802.5034 94.2384)" class="st8" width="373.4" height="234.6"/>
	<g>
		<path class="st1" d="M471.4,290.4v-28.7h-33.5c0,10.1-1.8,19.8-5.1,28.7H471.4z"/>
		<path class="st1" d="M275.4,290.4c-3.3-9-5.1-18.6-5.1-28.7h-33.5v28.7H275.4z"/>
		<path class="st1" d="M354.1,345.4c-24,0-45.7-10.1-61-26.3h-56.3v28.7h234.6v-28.7h-56.3C399.8,335.3,378.2,345.4,354.1,345.4z"/>
		<rect x="236.8" y="376.6" class="st1" width="234.6" height="4.8"/>
		<rect x="236.8" y="381.3" class="st1" width="234.6" height="23.9"/>
		<rect x="236.8" y="434" class="st1" width="234.6" height="28.7"/>
		<rect x="236.8" y="491.5" class="st1" width="234.6" height="28.7"/>
		<rect x="236.8" y="548.9" class="st1" width="234.6" height="28.7"/>
		<rect x="236.8" y="606.4" class="st1" width="234.6" height="37.7"/>
		<path class="st15" d="M415.1,319.1h56.3v-28.7h-38.6C428.9,301.2,422.8,310.9,415.1,319.1z"/>
		<path class="st15" d="M275.4,290.4h-38.6v28.7h56.3C285.5,310.9,279.3,301.2,275.4,290.4z"/>
		<rect x="236.8" y="347.8" class="st15" width="234.6" height="28.7"/>
		<rect x="236.8" y="405.3" class="st15" width="234.6" height="28.7"/>
		<rect x="236.8" y="462.7" class="st15" width="234.6" height="28.7"/>
		<rect x="236.8" y="520.2" class="st15" width="234.6" height="28.7"/>
		<rect x="236.8" y="577.6" class="st15" width="234.6" height="28.7"/>
	</g>
	<rect x="315.8" y="127.6" class="st8" width="76.6" height="134.1"/>
	<path class="st8" d="M236.8,261.6L236.8,261.6l0,229.8H165v-158C165,293.8,197.2,261.6,236.8,261.6z"/>
	<path class="st14" d="M332.6,252.1h-16.8v-14.4h16.8c4,0,7.2,3.2,7.2,7.2v0C339.8,248.9,336.6,252.1,332.6,252.1z"/>
	<path class="st14" d="M452,280.8v-19.2h14.4v19.2c0,4-3.2,7.2-7.2,7.2h0C455.2,288,452,284.8,452,280.8z"/>
	<g>
		<path class="st6" d="M284.8,128.8h-20.7c-3.3,0-6-2.7-6-6v0c0-3.3,2.7-6,6-6l20.7,0c3.3,0,6,2.7,6,6v0
			C290.8,126.2,288.1,128.8,284.8,128.8z"/>
		<circle class="st8" cx="332.6" cy="128.8" r="59.8"/>
		<path class="st16" d="M272.7,128.8c6.5,3.8,14.1,6,22.1,6c8.1,0,15.6-2.2,22.1-6L272.7,128.8z"/>
		<path class="st16" d="M313.4,88.2c10.6,0,19.2-8.6,19.2-19.2c-13,0-24.9,4.1-34.7,11.1C301.3,85,307,88.2,313.4,88.2z"/>
		<path class="st16" d="M332.6,69c0,23.8,19.3,43.1,43.1,43.1c4.8,0,9.4-0.8,13.7-2.2C381.4,86.1,359,69,332.6,69z"/>
		<path class="st16" d="M294.3,69c0,4.1,1.3,8,3.6,11.1c9.8-7,21.8-11.1,34.7-11.1L294.3,69z"/>
	</g>
	<g>
		<rect x="312.2" y="371.8" class="st6" width="19.2" height="119.7"/>
		<path class="st6" d="M277.5,491.5h-40.7c0,0,0-48.5,0-57.4c0-24,4.2-81.4,59.9-81.4l17.9,0v104.1L277.5,491.5z"/>
		<path class="st14" d="M348.1,477.1h-16.8v-19.2h-19.2v33.5h19.2h16.8c4,0,7.2-3.2,7.2-7.2S352.1,477.1,348.1,477.1z"/>
		<path class="st17" d="M316,491.5h-35.9v-14.4H316c4,0,7.2,3.2,7.2,7.2v0C323.2,488.2,319.9,491.5,316,491.5z"/>
		<circle class="st18" cx="277.5" cy="457.3" r="35.9"/>
		<g>
			<g>
				<path class="st14" d="M289.5,329.9c-5.3,0-9.6,4.3-9.6,9.6s4.3,9.6,9.6,9.6h23.9v-19.2H289.5z"/>
				<path class="st14" d="M370.9,329.9H347V349h23.9c5.3,0,9.6-4.3,9.6-9.6S376.2,329.9,370.9,329.9z"/>
			</g>
			<circle class="st6" cx="330.2" cy="343" r="35.9"/>
			<path class="st14" d="M342.2,326.3c-4.7,0-8.9,1.9-12,5c-3-3.1-7.3-5-12-5c-9.3,0-16.8,7.5-16.8,16.8c0,9.3,7.5,16.8,16.8,16.8
				c4.7,0,8.9-1.9,12-5c3,3.1,7.3,5,12,5c9.3,0,16.8-7.5,16.8-16.8C358.9,333.8,351.4,326.3,342.2,326.3z"/>
			<circle class="st15" cx="330.2" cy="359.8" r="12"/>
			<circle class="st6" cx="326.6" cy="356.2" r="1.2"/>
			<circle class="st6" cx="333.8" cy="356.2" r="1.2"/>
			<circle class="st15" cx="318.2" cy="343" r="6"/>
			<circle cx="318.2" cy="343" r="3.7"/>
			<circle class="st15" cx="342.2" cy="343" r="6"/>
			<circle cx="342.2" cy="343" r="3.7"/>
			<g>
				<rect x="327.8" y="302.3" class="st6" width="4.8" height="6"/>
			</g>
		</g>
	</g>
	<path class="st8" d="M406.8,527.4c0-6.6-5.4-12-12-12c6.8,0,12.2-5.6,12-12.4c-0.2-6.5-5.8-11.5-12.2-11.5H165v0
		c0,39.7,32.2,71.8,71.8,71.8h157.7c6.5,0,12-5,12.2-11.5c0.2-6.8-5.2-12.4-12-12.4C401.4,539.3,406.8,534,406.8,527.4z"/>
	<path class="st8" d="M471.5,261.6L471.5,261.6l0,328.6h71.8V333.4C543.2,293.8,511.1,261.6,471.5,261.6z"/>
</g>
<g>
	<path class="st6" d="M275.1,605.7c-2.6,0-4.8,2.1-4.8,4.8c0,6.6-5.4,12-12,12c-6.6,0-12-5.4-12-12c0-0.2,0-0.4,0-0.6v-46.2h-9.6
		v46.2h0.1c0,0.2,0,0.4,0,0.6c0,11.9,9.7,21.5,21.5,21.5c11.9,0,21.5-9.7,21.5-21.5C279.9,607.8,277.8,605.7,275.1,605.7z"/>
	<path class="st14" d="M276.6,598.9L276.6,598.9C276.6,598.9,276.6,598.9,276.6,598.9c-4-6.3-10.8-10-18.2-10
		c-2.6,0-4.8,2.1-4.8,4.8s2.1,4.8,4.8,4.8c4.1,0,7.9,2.1,10.1,5.6l0,0c1.2,1.9,1.9,4.1,1.9,6.4h9.6
		C279.9,606.4,278.8,602.4,276.6,598.9z"/>
</g>
<g>
	<path class="st0" d="M514.1,589.6l2.3-47c-11.1,4.2-21,9.5-29.9,15.8l4.1,58.3L514.1,589.6z"/>
	<path class="st0" d="M482.9,561.1c-6.1,4.7-11.6,9.8-16.5,15.5c-4,4.6-6.9,9.7-8.7,15l29.2,25.3L482.9,561.1z"/>
	<path class="st0" d="M493.2,619.5l56.4-0.4c6.1-10.7,10.6-22.6,13.6-35.8l-46.2,8.9L493.2,619.5z"/>
	<path class="st0" d="M564.3,531.9c-16.1,1.6-30.8,4.7-44,9.4l-2.2,43.8L564.3,531.9z"/>
	<path class="st0" d="M564,579.3c2.7-13.7,3.8-28.7,3.1-44.9L521,587.5L564,579.3z"/>
	<path class="st0" d="M456.4,595.6c-4,15.9,0.5,33.4,13.1,45.3l16.8-19.3L456.4,595.6z"/>
	<path class="st0" d="M536.5,637.5c4-4.6,7.6-9.5,10.8-14.7l-53.3,0.4l24,20.8h11.5C532,642.2,534.4,640,536.5,637.5z"/>
	<path class="st0" d="M489.2,624.1l-16.8,19.3c0.3,0.3,0.7,0.5,1,0.7h38.8L489.2,624.1z"/>
	<path class="st2" d="M512.2,644.1h5.8l-24-20.8l53.3-0.4c0.8-1.2,1.5-2.5,2.3-3.8l-56.4,0.4l23.8-27.3l46.2-8.9
		c0.3-1.3,0.6-2.7,0.9-4l-43,8.3l46.2-53.1c0-0.9-0.1-1.8-0.1-2.7v0h0c-0.9,0.1-1.8,0.2-2.7,0.3L518.1,585l2.2-43.8
		c-1.3,0.5-2.6,0.9-3.9,1.4l-2.3,47l-23.5,27.1l-4.1-58.3c-1.2,0.9-2.4,1.7-3.6,2.7l3.9,55.9l-29.2-25.3c-0.5,1.3-0.9,2.6-1.2,4
		l29.9,26l-16.8,19.3c0.5,0.4,0.9,0.9,1.4,1.3c0.5,0.4,1,0.8,1.5,1.2l16.8-19.3L512.2,644.1z"/>
</g>
<g>
	<path class="st7" d="M383.5,616c-15.9,0-28.8,12.9-28.8,28.8h57.7C412.3,628.9,399.4,616,383.5,616z"/>
	<path class="st7" d="M441.2,616c-15.9,0-28.8,12.9-28.8,28.8H470C470,628.9,457.1,616,441.2,616z"/>
	<path class="st7" d="M498.8,616c-15.9,0-28.8,12.9-28.8,28.8h57.7C527.7,628.9,514.8,616,498.8,616z"/>
	<path class="st7" d="M556.5,616c-15.9,0-28.8,12.9-28.8,28.8h57.7C585.3,628.9,572.4,616,556.5,616z"/>
	<path class="st7" d="M614.2,616c-15.9,0-28.8,12.9-28.8,28.8H643C643,628.9,630.1,616,614.2,616z"/>
</g>
<g>
	<path class="st0" d="M63.8,616C47.9,616,35,628.9,35,644.8h57.7C92.7,628.9,79.8,616,63.8,616z"/>
	<path class="st0" d="M121.5,616c-15.9,0-28.8,12.9-28.8,28.8h57.7C150.3,628.9,137.4,616,121.5,616z"/>
	<path class="st0" d="M179.2,616c-15.9,0-28.8,12.9-28.8,28.8H208C208,628.9,195.1,616,179.2,616z"/>
</g>
</svg>
