<?xml version="1.0" encoding="utf-8"?>
<!-- Generator: Adobe Illustrator 23.0.3, SVG Export Plug-In . SVG Version: 6.00 Build 0)  -->
<svg version="1.1" id="Capa_1" xmlns="http://www.w3.org/2000/svg" xmlns:xlink="http://www.w3.org/1999/xlink" x="0px" y="0px"
	 viewBox="0 0 691 691" style="enable-background:new 0 0 691 691;" xml:space="preserve">
<style type="text/css">
	.st0{fill:#00EEAB;}
	.st1{fill:#2465EE;}
	.st2{fill:#FFEF00;}
	.st3{fill:#45B6F4;}
	.st4{display:none;clip-path:url(#SVGID_2_);fill:#FFEF00;}
	.st5{clip-path:url(#SVGID_2_);}
	.st6{fill:#FF473A;}
	.st7{fill:#FF99E9;}
	.st8{fill:#F4C6C1;}
	.st9{clip-path:url(#SVGID_4_);fill:none;stroke:#2465EE;stroke-width:3.2258;stroke-miterlimit:10;}
	.st10{clip-path:url(#SVGID_6_);fill:none;stroke:#FFEF00;stroke-width:2.5382;stroke-miterlimit:10;}
	.st11{display:none;fill:#53B0E3;}
	.st12{fill:none;stroke:#FF99E9;stroke-width:4;stroke-miterlimit:10;}
	.st13{clip-path:url(#SVGID_8_);fill:none;stroke:#2465EE;stroke-width:4;stroke-miterlimit:10;}
	.st14{fill:#FCE2DE;}
	.st15{fill:#FFFFFF;}
	.st16{fill:#1A1A1A;}
	.st17{fill:#F9D8D4;}
	.st18{fill:#FF3833;}
	.st19{clip-path:url(#SVGID_10_);}
	.st20{clip-path:url(#SVGID_12_);fill:none;stroke:#FFEF00;stroke-width:4;stroke-miterlimit:10;}
	.st21{clip-path:url(#SVGID_10_);fill:#FFEF00;}
	.st22{display:none;fill:#FF99E9;}
	.st23{clip-path:url(#SVGID_14_);fill:none;stroke:#2465EE;stroke-width:4.4474;stroke-miterlimit:10;}
	.st24{clip-path:url(#SVGID_14_);fill:none;stroke:#2465EE;stroke-width:4.9509;stroke-miterlimit:10;}
	.st25{clip-path:url(#SVGID_16_);fill:none;stroke:#FFEF00;stroke-width:4.4584;stroke-miterlimit:10;}
	.st26{clip-path:url(#SVGID_18_);fill:none;stroke:#FFEF00;stroke-width:5.6507;stroke-miterlimit:10;}
	.st27{fill:none;stroke:#00EEAB;stroke-width:5.6507;stroke-miterlimit:10;}
	.st28{clip-path:url(#SVGID_20_);fill:none;stroke:#FFEF00;stroke-width:5.6507;stroke-miterlimit:10;}
	.st29{opacity:0.29;fill:#333333;}
	.st30{clip-path:url(#SVGID_22_);fill:none;stroke:#FFEF00;stroke-width:5.6507;stroke-miterlimit:10;}
	.st31{clip-path:url(#SVGID_24_);fill:none;stroke:#FFEF00;stroke-width:5.6507;stroke-miterlimit:10;}
	.st32{fill:none;stroke:#00EEAB;stroke-width:4;stroke-miterlimit:10;}
	.st33{fill:none;stroke:#FFEF00;stroke-width:2.8877;stroke-miterlimit:10;}
	.st34{fill:none;stroke:#2465EE;stroke-width:3.2258;stroke-miterlimit:10;}
	.st35{fill:none;stroke:#00EEAB;stroke-width:2.8877;stroke-miterlimit:10;}
</style>
<g>
	<defs>
		<path id="SVGID_17_" d="M49.5,547.1L49.5,547.1L49.5,547.1L49.5,547.1c0.4,77.6,22.4,138.7,63.6,181c31.2,32,82.4,32.6,114.4,1.4
			c32-31.2,32.6-82.4,1.4-114.4C187.6,572.9,127,549.4,49.5,547.1z"/>
	</defs>
	<use xlink:href="#SVGID_17_"  style="overflow:visible;fill:#00EEAB;"/>
	<clipPath id="SVGID_2_">
		<use xlink:href="#SVGID_17_"  style="overflow:visible;"/>
	</clipPath>
	<polyline style="clip-path:url(#SVGID_2_);fill:none;stroke:#FFEF00;stroke-width:5.6507;stroke-miterlimit:10;" points="
		133.5,545.3 144.1,644.1 45.6,631.1 	"/>
	<polyline style="clip-path:url(#SVGID_2_);fill:none;stroke:#FFEF00;stroke-width:5.6507;stroke-miterlimit:10;" points="
		52.5,693.5 194.1,695.3 204.3,558.1 	"/>
	<polyline style="clip-path:url(#SVGID_2_);fill:none;stroke:#FFEF00;stroke-width:5.6507;stroke-miterlimit:10;" points="
		131.3,756.5 194.1,695.3 256.8,634.1 	"/>
	
		<line style="clip-path:url(#SVGID_2_);fill:none;stroke:#FFEF00;stroke-width:5.6507;stroke-miterlimit:10;" x1="46.2" y1="543.7" x2="301.6" y2="805.5"/>
</g>
<line class="st27" x1="248.5" y1="76.4" x2="248.5" y2="671.1"/>
<path class="st7" d="M211.7,76.4c0,20.3,16.4,36.7,36.7,36.7s36.7-16.4,36.7-36.7"/>
<g>
	<circle class="st2" cx="272.8" cy="63.5" r="8.5"/>
	<circle class="st2" cx="248.4" cy="63.5" r="8.5"/>
	<circle class="st2" cx="224" cy="63.5" r="8.5"/>
</g>
<path class="st7" d="M211.7,149.3c0,20.3,16.4,36.7,36.7,36.7s36.7-16.4,36.7-36.7"/>
<path class="st7" d="M211.7,222.2c0,20.3,16.4,36.7,36.7,36.7s36.7-16.4,36.7-36.7"/>
<path class="st7" d="M214.1,297.1c0,18.9,15.3,34.3,34.3,34.3s34.3-15.3,34.3-34.3"/>
<g>
	<defs>
		<path id="SVGID_19_" d="M571.6,154.9L571.6,154.9L571.6,154.9L571.6,154.9C460,210.5,387.6,285.5,355.9,375
			c-23.9,67.6,11.5,141.9,79.1,165.8s141.9-11.5,165.8-79.1C632.5,372.2,623.3,268.3,571.6,154.9z"/>
	</defs>
	<use xlink:href="#SVGID_19_"  style="overflow:visible;fill:#00EEAB;"/>
	<clipPath id="SVGID_4_">
		<use xlink:href="#SVGID_19_"  style="overflow:visible;"/>
	</clipPath>
	<polyline style="clip-path:url(#SVGID_4_);fill:none;stroke:#FFEF00;stroke-width:5.6507;stroke-miterlimit:10;" points="
		633.8,274.7 499,360.1 447.9,208.9 	"/>
	<polyline style="clip-path:url(#SVGID_4_);fill:none;stroke:#FFEF00;stroke-width:5.6507;stroke-miterlimit:10;" points="
		362.7,263.1 460.6,468.4 665.6,385.8 	"/>
	<polyline style="clip-path:url(#SVGID_4_);fill:none;stroke:#FFEF00;stroke-width:5.6507;stroke-miterlimit:10;" points="
		327.9,421.4 460.6,468.4 593.4,515.3 	"/>
	
		<line style="clip-path:url(#SVGID_4_);fill:none;stroke:#FFEF00;stroke-width:5.6507;stroke-miterlimit:10;" x1="574.2" y1="147.7" x2="378.1" y2="701.6"/>
</g>
<path class="st7" d="M659.7,425.8L659.7,425.8L659.7,425.8L659.7,425.8c-122.8,5.1-218.3,43.3-282.8,111
	c-48.8,51.2-46.9,132.3,4.3,181.1s132.3,46.9,181.1-4.3C626.8,645.8,660.5,548.7,659.7,425.8z"/>
<path class="st2" d="M49.4,331.3L49.4,331.3L49.4,331.3L49.4,331.3C56.3,450.9,95,543.3,162,605.1c50.6,46.8,129.6,43.6,176.4-7
	c46.8-50.6,43.6-129.6-7-176.4C264.4,359.9,169.2,328.6,49.4,331.3z"/>
<path class="st6" d="M271.9,218.3c0-43.7,35.4-79.1,79.1-79.1c43.7,0,79.1,35.4,79.1,79.1v661.2H271.9V218.3z"/>
<path class="st8" d="M351,147.7l70.6,70.6c0,0,0,0,0,0c0,39-31.6,70.6-70.6,70.6s-70.6-31.6-70.6-70.6L351,147.7L351,147.7z"/>
<rect x="305.8" y="218.3" transform="matrix(-1 -4.490598e-11 4.490598e-11 -1 701.9273 594.8663)" class="st8" width="90.4" height="158.2"/>
<path class="st8" d="M500.6,546.1c23.4,0,42.4-19,42.4-42.4c0-23.4-19-42.4-42.4-42.4h-68v-84.8h68c70.1,0,127.1,57,127.1,127.1
	c0,70.1-57,127.1-127.1,127.1"/>
<path class="st8" d="M201.3,630.8c-70.1,0-127.1-57-127.1-127.1c0-70.1,57-127.1,127.1-127.1h68v84.8h-68c-23.4,0-42.4,19-42.4,42.4
	c0,23.4,19,42.4,42.4,42.4"/>
<rect x="99.5" y="489.6" transform="matrix(-4.489671e-11 1 -1 -4.489671e-11 978.9619 277.0345)" class="st8" width="502.9" height="276.9"/>
<path class="st7" d="M359.4,222.6c0-4.7-3.8-8.5-8.5-8.5h0c-4.7,0-8.5,3.8-8.5,8.5H359.4z"/>
<g>
	<circle class="st6" cx="355.2" cy="257.9" r="5.7"/>
	<circle class="st6" cx="346.7" cy="257.9" r="5.7"/>
	<path class="st6" d="M341.1,257.9c0,5.5,4.4,9.9,9.9,9.9c5.5,0,9.9-4.4,9.9-9.9"/>
</g>
<path class="st1" d="M396.2,376.5l93.2,84.8l0,418.1H212.5l-0.2-418.1l93.5-84.8C305.8,376.5,395.8,376.5,396.2,376.5z"/>
<path class="st0" d="M334.2,521.5c1.1,8.3,8.2,14.7,16.8,14.7c8.6,0,15.7-6.4,16.8-14.7c26.2,7.3,45.4,31.4,45.4,59.9
	c0,34.3-27.8,62.2-62.2,62.2s-62.2-27.8-62.2-62.2C288.8,552.9,308,528.8,334.2,521.5z"/>
<path class="st29" d="M351,536.2c-8.6,0-15.7-6.4-16.8-14.7c5.3-1.5,11-2.3,16.8-2.3s11.5,0.8,16.8,2.3
	C366.6,529.8,359.5,536.2,351,536.2z"/>
<path class="st15" d="M351,536.2c-8.6,0-15.7-6.4-16.8-14.7c5.3-1.5,11-2.3,16.8-2.3s11.5,0.8,16.8,2.3
	C366.6,529.8,359.5,536.2,351,536.2z"/>
<path class="st8" d="M201.3,546.1h104.4v0c0.1,0,0.1,0,0.2,0c7.8,0,14.1,6.3,14.1,14.1c0,7.8-6.3,14.1-14.1,14.1c-0.1,0-0.1,0-0.2,0
	v0c0.1,0,0.1,0,0.2,0c7.8,0,14.1,6.3,14.1,14.1c0,7.8-6.3,14.1-14.1,14.1c-0.1,0-0.1,0-0.2,0v0c0.1,0,0.1,0,0.2,0
	c7.8,0,14.1,6.3,14.1,14.1c0,7.8-6.3,14.1-14.1,14.1c-0.1,0-0.1,0-0.2,0v0H201.3"/>
<rect x="305.8" y="342.6" transform="matrix(-1 -4.490598e-11 4.490598e-11 -1 701.9273 719.1814)" class="st1" width="90.4" height="33.9"/>
<rect x="346.7" y="259.3" class="st15" width="8.5" height="268.4"/>
<path class="st8" d="M500.6,630.8H396.3c-7.8,0-14.1-6.3-14.1-14.1c0-7.8,6.3-14.1,14.1-14.1c-7.8,0-14.1-6.3-14.1-14.1
	c0-7.8,6.3-14.1,14.1-14.1c-7.8,0-14.1-6.3-14.1-14.1c0-7.8,6.3-14.1,14.1-14.1h104.4"/>
<rect x="346.7" y="408.3" class="st2" width="8.5" height="119.4"/>
<g>
	<g>
		<circle class="st2" cx="426.5" cy="237.4" r="24.7"/>
	</g>
	<circle class="st7" cx="426.5" cy="237.4" r="12.3"/>
</g>
<g>
	<circle class="st0" cx="404.5" cy="265.2" r="19.9"/>
	<circle class="st2" cx="404.5" cy="265.2" r="9.9"/>
</g>
<g>
	<path class="st2" d="M610.1,660.6c16.8,0,30.4,13.6,30.4,30.4h-60.9C579.6,674.2,593.3,660.6,610.1,660.6z"/>
	<path class="st2" d="M549.2,660.6c16.8,0,30.4,13.6,30.4,30.4h-60.9C518.8,674.2,532.4,660.6,549.2,660.6z"/>
	<path class="st2" d="M488.3,660.6c16.8,0,30.4,13.6,30.4,30.4h-60.9C457.9,674.2,471.5,660.6,488.3,660.6z"/>
</g>
<g>
	<path class="st7" d="M315.5,660.6c16.8,0,30.4,13.6,30.4,30.4h-60.9C285.1,674.2,298.7,660.6,315.5,660.6z"/>
	<path class="st7" d="M254.7,660.6c16.8,0,30.4,13.6,30.4,30.4h-60.9C224.2,674.2,237.8,660.6,254.7,660.6z"/>
	<path class="st7" d="M193.8,660.6c16.8,0,30.4,13.6,30.4,30.4h-60.9C163.4,674.2,177,660.6,193.8,660.6z"/>
	<path class="st7" d="M132.9,660.6c16.8,0,30.4,13.6,30.4,30.4h-60.9C102.5,674.2,116.1,660.6,132.9,660.6z"/>
	<path class="st7" d="M72,660.6c16.8,0,30.4,13.6,30.4,30.4H41.6C41.6,674.2,55.2,660.6,72,660.6z"/>
</g>
</svg>
