<?xml version="1.0" encoding="utf-8"?>
<!-- Generator: Adobe Illustrator 23.0.3, SVG Export Plug-In . SVG Version: 6.00 Build 0)  -->
<svg version="1.1" id="Capa_1" xmlns="http://www.w3.org/2000/svg" xmlns:xlink="http://www.w3.org/1999/xlink" x="0px" y="0px"
	 viewBox="0 0 692 569.5" style="enable-background:new 0 0 692 569.5;" xml:space="preserve">
<style type="text/css">
	.st0{fill:#00EEAB;}
	.st1{fill:#2465EE;}
	.st2{fill:#FFEF00;}
	.st3{fill:#45B6F4;}
	.st4{display:none;clip-path:url(#SVGID_2_);fill:#FFEF00;}
	.st5{clip-path:url(#SVGID_2_);}
	.st6{fill:#FF473A;}
	.st7{fill:#FF99E9;}
	.st8{fill:#F4C6C1;}
	.st9{clip-path:url(#SVGID_4_);fill:none;stroke:#2465EE;stroke-width:3.2258;stroke-miterlimit:10;}
	.st10{clip-path:url(#SVGID_6_);fill:none;stroke:#FFEF00;stroke-width:2.5382;stroke-miterlimit:10;}
	.st11{display:none;fill:#53B0E3;}
	.st12{fill:none;stroke:#FF99E9;stroke-width:4;stroke-miterlimit:10;}
	.st13{clip-path:url(#SVGID_8_);fill:none;stroke:#2465EE;stroke-width:4;stroke-miterlimit:10;}
	.st14{fill:#FCE2DE;}
	.st15{fill:#FFFFFF;}
	.st16{fill:#1A1A1A;}
	.st17{fill:#F9D8D4;}
	.st18{fill:#FF3833;}
	.st19{clip-path:url(#SVGID_10_);}
	.st20{clip-path:url(#SVGID_12_);fill:none;stroke:#FFEF00;stroke-width:4;stroke-miterlimit:10;}
	.st21{clip-path:url(#SVGID_10_);fill:#FFEF00;}
	.st22{display:none;fill:#FF99E9;}
	.st23{clip-path:url(#SVGID_14_);fill:none;stroke:#2465EE;stroke-width:4.4474;stroke-miterlimit:10;}
	.st24{clip-path:url(#SVGID_14_);fill:none;stroke:#2465EE;stroke-width:4.9509;stroke-miterlimit:10;}
	.st25{clip-path:url(#SVGID_16_);fill:none;stroke:#FFEF00;stroke-width:4.4584;stroke-miterlimit:10;}
	.st26{clip-path:url(#SVGID_18_);fill:none;stroke:#FFEF00;stroke-width:5.6507;stroke-miterlimit:10;}
	.st27{fill:none;stroke:#00EEAB;stroke-width:5.6507;stroke-miterlimit:10;}
	.st28{clip-path:url(#SVGID_20_);fill:none;stroke:#FFEF00;stroke-width:5.6507;stroke-miterlimit:10;}
	.st29{opacity:0.29;fill:#333333;}
	.st30{clip-path:url(#SVGID_22_);fill:none;stroke:#FFEF00;stroke-width:5.6507;stroke-miterlimit:10;}
	.st31{clip-path:url(#SVGID_24_);fill:none;stroke:#FFEF00;stroke-width:5.6507;stroke-miterlimit:10;}
	.st32{fill:none;stroke:#00EEAB;stroke-width:4;stroke-miterlimit:10;}
	.st33{fill:none;stroke:#FFEF00;stroke-width:2.8877;stroke-miterlimit:10;}
	.st34{fill:none;stroke:#2465EE;stroke-width:3.2258;stroke-miterlimit:10;}
	.st35{fill:none;stroke:#00EEAB;stroke-width:2.8877;stroke-miterlimit:10;}
</style>
<g>
	<defs>
		<rect id="SVGID_1_" x="-48.5" width="523" height="569.5"/>
	</defs>
	<clipPath id="SVGID_2_">
		<use xlink:href="#SVGID_1_"  style="overflow:visible;"/>
	</clipPath>
	<path class="st4" d="M606.5,553.5h-376c-39.8,0-72-32.2-72-72v0c0-39.8,32.2-72,72-72h376c39.8,0,72,32.2,72,72v0
		C678.5,521.3,646.3,553.5,606.5,553.5z"/>
	<path class="st4" d="M150.1,360.9h-49.2c-26.2,0-47.4-21.2-47.4-47.4v0c0-26.2,21.2-47.4,47.4-47.4h49.2
		c26.2,0,47.4,21.2,47.4,47.4v0C197.5,339.7,176.3,360.9,150.1,360.9z"/>
	<path class="st4" d="M28.9,252.5H-3.9c-17.5,0-31.6-14.2-31.6-31.6v0c0-17.5,14.2-31.6,31.6-31.6h32.8c17.5,0,31.6,14.2,31.6,31.6
		v0C60.5,238.3,46.3,252.5,28.9,252.5z"/>
	<path class="st4" d="M534.5,410.5h-218c-49.7,0-90-40.3-90-90v0c0-49.7,40.3-90,90-90h218c49.7,0,90,40.3,90,90v0
		C624.5,370.2,584.2,410.5,534.5,410.5z"/>
	<g class="st5">
		<g>
			<g>
				<circle class="st2" cx="155.4" cy="232.1" r="18.3"/>
				<rect x="150.8" y="255" class="st6" width="4.6" height="36.5"/>
				<rect x="155.4" y="255" class="st7" width="4.6" height="22.8"/>
				<g>
					<rect x="171.9" y="197.4" transform="matrix(0.5 -0.866 0.866 0.5 -95.697 256.3492)" class="st1" width="4.6" height="27.4"/>
					<circle class="st2" cx="155.4" cy="200.2" r="9.1"/>
					<circle class="st1" cx="155.4" cy="200.2" r="4.6"/>
				</g>
				<g>
					<path class="st7" d="M99.6,206.7c-10.2-10.2-14.1-24.2-11.7-37.4l49.2,49.2C123.9,220.8,109.8,216.9,99.6,206.7z"/>
				</g>
				<g>
					<path class="st6" d="M102.3,236.6c-14.4,0-27.1-7.2-34.8-18.2H137C129.4,229.4,116.7,236.6,102.3,236.6z"/>
				</g>
			</g>
			<g>
				
					<rect x="353.6" y="244.1" transform="matrix(0.5 -0.866 0.866 0.5 -123.7083 528.6394)" class="st8" width="84.7" height="254.7"/>
				<path class="st6" d="M239.7,255.4l-19.8-11.5c-3.2-1.8-4.2-5.9-2.4-9l0,0c1.8-3.2,5.9-4.2,9-2.4l19.8,11.5
					c3.2,1.8,4.2,5.9,2.4,9h0C246.9,256.1,242.9,257.2,239.7,255.4z"/>
				<circle class="st8" cx="285.5" cy="281.8" r="66.2"/>
				<circle class="st7" cx="290.7" cy="198" r="42.3"/>
				<path class="st7" d="M318.6,224.5c31.6,18.3,42.5,58.7,24.2,90.4c-9.1,15.8-23.8,26.5-40.2,30.8l-34.2-127.8
					C284.7,213.5,302.7,215.4,318.6,224.5z"/>
				<path class="st1" d="M255.3,370c0-20.4,16.6-37,37-37s37,16.6,37,37c0,20.4-16.6,37-37,37S255.3,390.5,255.3,370z M265.8,370
					c0,14.6,11.9,26.5,26.5,26.5s26.5-11.9,26.5-26.5s-11.9-26.5-26.5-26.5S265.8,355.4,265.8,370z"/>
				<circle class="st2" cx="292.3" cy="327.7" r="7.9"/>
				<circle class="st6" cx="290.7" cy="198" r="15.9"/>
			</g>
		</g>
		<g>
			<defs>
				<path id="SVGID_3_" d="M408.2,249.7L408.2,249.7L408.2,249.7L408.2,249.7c42.2,16.6,70.9,41.4,85.2,72.9
					c10.8,23.7,0.4,51.8-23.4,62.6c-23.7,10.8-51.8,0.4-62.6-23.4C393.1,330.4,393.1,292.4,408.2,249.7z"/>
			</defs>
			<use xlink:href="#SVGID_3_"  style="overflow:visible;fill:#00EEAB;"/>
			<clipPath id="SVGID_4_">
				<use xlink:href="#SVGID_3_"  style="overflow:visible;"/>
			</clipPath>
			<polyline class="st9" points="389.5,295.1 441.1,321.7 454.7,265.3 			"/>
			<polyline class="st9" points="487.3,282.2 458.4,359.7 381.5,336.4 			"/>
			<polyline class="st9" points="505,338.4 458.4,359.7 411.8,381 			"/>
			<line class="st9" x1="407" y1="247.1" x2="495.8" y2="441.6"/>
		</g>
		<path class="st1" d="M391.8,364.2L391.8,364.2L391.8,364.2L391.8,364.2c31.6-2.6,57.3,4.2,75.9,19.4c14.1,11.6,16.2,32.4,4.6,46.5
			c-11.6,14.1-32.4,16.2-46.5,4.6C407.2,419.5,395.5,395.7,391.8,364.2z"/>
		<path class="st7" d="M385.5,408.7L385.5,408.7L385.5,408.7L385.5,408.7c38-10.7,70.9-8.6,97.4,5.6c20,10.7,27.5,35.7,16.8,55.7
			c-10.7,20-35.7,27.5-55.7,16.8C417.5,472.5,397.5,446.2,385.5,408.7z"/>
		<g>
			<defs>
				<path id="SVGID_5_" d="M377.3,493.7L377.3,493.7L377.3,493.7L377.3,493.7c21.5-34,47.9-54.8,77.6-62
					c22.5-5.5,45.1,8.3,50.6,30.8c5.5,22.5-8.3,45.1-30.8,50.6C445,520.3,412,514,377.3,493.7z"/>
			</defs>
			<use xlink:href="#SVGID_5_"  style="overflow:visible;fill:#00EEAB;"/>
			<clipPath id="SVGID_6_">
				<use xlink:href="#SVGID_5_"  style="overflow:visible;"/>
			</clipPath>
			<polyline class="st10" points="413.7,517.6 445.4,477.1 398.6,455.8 			"/>
			<polyline class="st10" points="418.8,430.3 481.4,468.3 448.3,531.4 			"/>
			<polyline class="st10" points="470.7,424.3 481.4,468.3 492.1,512.4 			"/>
			<line class="st10" x1="374.9" y1="494.3" x2="558.8" y2="449.5"/>
		</g>
	</g>
</g>
<g>
	<g>
		<path class="st0" d="M487.5,223.9c0,0-55.2-208.4,0-208.4S487.5,223.9,487.5,223.9z"/>
		<path class="st0" d="M487.5,223.9c0,0-152-152.9-104.2-180.5S487.5,223.9,487.5,223.9z"/>
		<path class="st0" d="M487.5,223.9c0,0-208-56.4-180.5-104.2C334.6,71.9,487.5,223.9,487.5,223.9z"/>
		<path class="st0" d="M487.5,223.9c0,0,152.9-152,180.5-104.2S487.5,223.9,487.5,223.9z"/>
		<path class="st0" d="M487.5,223.9c0,0,56.4-208,104.2-180.5C639.5,71,487.5,223.9,487.5,223.9z"/>
	</g>
	<g>
		<rect x="466.7" y="218.1" class="st2" width="41.7" height="336.4"/>
		<line class="st32" x1="466.5" y1="254.4" x2="508.5" y2="254.4"/>
		<line class="st32" x1="466.5" y1="290.2" x2="508.5" y2="290.2"/>
		<line class="st32" x1="466.5" y1="361.9" x2="508.5" y2="361.9"/>
		<line class="st32" x1="466.5" y1="397.8" x2="508.5" y2="397.8"/>
		<line class="st32" x1="466.5" y1="433.6" x2="508.5" y2="433.6"/>
		<line class="st32" x1="466.5" y1="469.5" x2="508.5" y2="469.5"/>
		<line class="st32" x1="466.5" y1="505.6" x2="508.5" y2="505.6"/>
		<line class="st32" x1="466.5" y1="326.1" x2="508.5" y2="326.1"/>
	</g>
</g>
<g>
	<g>
		<g>
			<line class="st33" x1="637.4" y1="382.1" x2="637.4" y2="550.5"/>
			<polyline class="st33" points="621.5,387.9 637.4,399.5 653.3,387.9 			"/>
			<polyline class="st33" points="621.5,396.6 637.4,408.1 653.3,396.6 			"/>
			<polyline class="st33" points="621.5,405.2 637.4,416.8 653.3,405.2 			"/>
			<polyline class="st33" points="621.5,413.9 637.4,425.5 653.3,413.9 			"/>
			<polyline class="st33" points="621.5,422.6 637.4,434.1 653.3,422.6 			"/>
			<polyline class="st33" points="621.5,431.2 637.4,442.8 653.3,431.2 			"/>
			<polyline class="st33" points="621.5,439.9 637.4,451.5 653.3,439.9 			"/>
			<polyline class="st33" points="621.5,448.6 637.4,460.1 653.3,448.6 			"/>
		</g>
		<circle class="st7" cx="637.4" cy="375.6" r="11.6"/>
		<circle class="st6" cx="637.4" cy="375.6" r="5.8"/>
	</g>
	<g>
		<g>
			<line class="st34" x1="159.4" y1="417.5" x2="159.4" y2="550.5"/>
			<polyline class="st34" points="143.5,423.3 159.4,434.9 175.3,423.3 			"/>
			<polyline class="st34" points="143.5,432 159.4,443.5 175.3,432 			"/>
			<polyline class="st34" points="143.5,440.6 159.4,452.2 175.3,440.6 			"/>
			<polyline class="st34" points="143.5,449.3 159.4,460.9 175.3,449.3 			"/>
			<polyline class="st34" points="143.5,458 159.4,469.5 175.3,458 			"/>
			<polyline class="st34" points="143.5,466.6 159.4,478.2 175.3,466.6 			"/>
			<polyline class="st34" points="143.5,475.3 159.4,486.9 175.3,475.3 			"/>
			<polyline class="st34" points="143.5,484 159.4,495.5 175.3,484 			"/>
		</g>
		<circle class="st0" cx="159.4" cy="411.1" r="11.6"/>
		<circle class="st2" cx="159.4" cy="411.1" r="5.8"/>
	</g>
	<g>
		<g>
			<line class="st35" x1="583.4" y1="346.2" x2="583.4" y2="552.5"/>
			<polyline class="st35" points="567.5,352 583.4,363.5 599.3,352 			"/>
			<polyline class="st35" points="567.5,360.6 583.4,372.2 599.3,360.6 			"/>
			<polyline class="st35" points="567.5,369.3 583.4,380.8 599.3,369.3 			"/>
			<polyline class="st35" points="567.5,377.9 583.4,389.5 599.3,377.9 			"/>
			<polyline class="st35" points="567.5,386.6 583.4,398.2 599.3,386.6 			"/>
			<polyline class="st35" points="567.5,395.3 583.4,406.8 599.3,395.3 			"/>
			<polyline class="st35" points="567.5,403.9 583.4,415.5 599.3,403.9 			"/>
			<polyline class="st35" points="567.5,412.6 583.4,424.1 599.3,412.6 			"/>
			<polyline class="st35" points="567.5,421.3 583.4,432.8 599.3,421.3 			"/>
			<polyline class="st35" points="567.5,429.9 583.4,441.5 599.3,429.9 			"/>
			<polyline class="st35" points="567.5,438.6 583.4,450.1 599.3,438.6 			"/>
			<polyline class="st35" points="567.5,447.2 583.4,458.8 599.3,447.2 			"/>
		</g>
		<circle class="st2" cx="583.4" cy="339.7" r="11.6"/>
		<circle class="st7" cx="583.4" cy="339.7" r="5.8"/>
	</g>
	<path class="st1" d="M393.6,525.5c-16.8,0-30.4,13.6-30.4,30.4H424C424,539.1,410.4,525.5,393.6,525.5z"/>
	<path class="st1" d="M454.5,525.5c-16.8,0-30.4,13.6-30.4,30.4h60.9C484.9,539.1,471.3,525.5,454.5,525.5z"/>
	<path class="st1" d="M515.3,525.5c-16.8,0-30.4,13.6-30.4,30.4h60.9C545.8,539.1,532.1,525.5,515.3,525.5z"/>
	<path class="st2" d="M89.9,525.5c-16.8,0-30.4,13.6-30.4,30.4h60.9C120.4,539.1,106.7,525.5,89.9,525.5z"/>
	<path class="st2" d="M150.8,525.5c-16.8,0-30.4,13.6-30.4,30.4h60.9C181.2,539.1,167.6,525.5,150.8,525.5z"/>
	<path class="st2" d="M211.7,525.5c-16.8,0-30.4,13.6-30.4,30.4h60.9C242.1,539.1,228.5,525.5,211.7,525.5z"/>
	<path class="st1" d="M576.2,525.5c-16.8,0-30.4,13.6-30.4,30.4h60.9C606.6,539.1,593,525.5,576.2,525.5z"/>
	<path class="st1" d="M637.1,525.5c-16.8,0-30.4,13.6-30.4,30.4h60.9C667.5,539.1,653.9,525.5,637.1,525.5z"/>
</g>
</svg>
